<svg xmlns="http://www.w3.org/2000/svg" xmlns:xlink="http://www.w3.org/1999/xlink" width="1024" zoomAndPan="magnify" viewBox="0 0 768 767.999994" height="1024" preserveAspectRatio="xMidYMid meet" version="1.0"><defs><clipPath id="40313db77b"><path d="M 475 142.371094 L 506 142.371094 L 506 218 L 475 218 Z M 475 142.371094 " clip-rule="nonzero"/></clipPath></defs><path fill="#0c5ca4" d="M 485.222656 248.339844 L 169.1875 358.992188 C 168.496094 359.234375 167.828125 359.523438 167.183594 359.863281 C 166.535156 360.203125 165.914062 360.585938 165.324219 361.015625 C 164.730469 361.445312 164.175781 361.914062 163.652344 362.425781 C 163.128906 362.9375 162.644531 363.484375 162.199219 364.0625 C 161.757812 364.644531 161.359375 365.253906 161.003906 365.894531 C 160.648438 366.53125 160.34375 367.195312 160.082031 367.878906 C 159.824219 368.5625 159.617188 369.261719 159.460938 369.972656 C 159.304688 370.6875 159.199219 371.410156 159.148438 372.140625 C 159.09375 372.867188 159.097656 373.597656 159.152344 374.328125 C 159.207031 375.054688 159.3125 375.777344 159.472656 376.488281 C 159.632812 377.203125 159.839844 377.902344 160.101562 378.585938 C 160.363281 379.265625 160.671875 379.929688 161.03125 380.566406 C 161.386719 381.203125 161.789062 381.8125 162.234375 382.390625 C 162.679688 382.972656 163.164062 383.515625 163.691406 384.023438 C 164.214844 384.53125 164.773438 385 165.367188 385.429688 C 165.960938 385.855469 166.582031 386.238281 167.230469 386.574219 L 239.722656 424.238281 L 163.191406 500.765625 C 162.492188 501.46875 161.867188 502.226562 161.320312 503.050781 C 160.769531 503.871094 160.304688 504.742188 159.925781 505.65625 C 159.546875 506.566406 159.261719 507.511719 159.070312 508.480469 C 158.878906 509.449219 158.78125 510.429688 158.78125 511.417969 C 158.78125 512.40625 158.878906 513.386719 159.070312 514.355469 C 159.261719 515.328125 159.546875 516.269531 159.925781 517.183594 C 160.304688 518.097656 160.769531 518.964844 161.320312 519.785156 C 161.867188 520.609375 162.492188 521.371094 163.191406 522.070312 L 231.058594 589.863281 C 231.757812 590.5625 232.519531 591.1875 233.34375 591.734375 C 234.164062 592.285156 235.03125 592.75 235.945312 593.125 C 236.859375 593.503906 237.800781 593.789062 238.773438 593.984375 C 239.742188 594.175781 240.722656 594.273438 241.710938 594.273438 C 242.699219 594.273438 243.679688 594.175781 244.648438 593.984375 C 245.617188 593.789062 246.5625 593.503906 247.476562 593.125 C 248.386719 592.75 249.257812 592.285156 250.078125 591.734375 C 250.902344 591.1875 251.660156 590.5625 252.363281 589.863281 L 328.0625 514.175781 L 363.964844 585.945312 C 364.589844 587.195312 365.371094 588.339844 366.316406 589.371094 C 367.257812 590.402344 368.324219 591.289062 369.515625 592.023438 C 370.703125 592.757812 371.972656 593.316406 373.316406 593.699219 C 374.660156 594.082031 376.03125 594.277344 377.429688 594.277344 L 378.351562 594.277344 C 379.082031 594.230469 379.808594 594.132812 380.527344 593.984375 C 381.246094 593.832031 381.949219 593.628906 382.636719 593.375 C 383.324219 593.125 383.992188 592.820312 384.636719 592.46875 C 385.28125 592.121094 385.898438 591.722656 386.484375 591.28125 C 387.070312 590.84375 387.621094 590.359375 388.140625 589.839844 C 388.65625 589.316406 389.132812 588.761719 389.566406 588.171875 C 390 587.578125 390.390625 586.960938 390.734375 586.3125 C 391.082031 585.664062 391.375 584.996094 391.621094 584.304688 L 504.398438 267.589844 C 504.875 266.25 505.15625 264.871094 505.242188 263.453125 C 505.328125 262.035156 505.21875 260.632812 504.90625 259.242188 C 504.59375 257.855469 504.097656 256.539062 503.414062 255.292969 C 502.730469 254.046875 501.886719 252.917969 500.882812 251.910156 C 499.882812 250.902344 498.757812 250.054688 497.515625 249.367188 C 496.273438 248.675781 494.957031 248.171875 493.570312 247.855469 C 492.183594 247.539062 490.78125 247.417969 489.363281 247.496094 C 487.945312 247.578125 486.5625 247.851562 485.222656 248.324219 Z M 485.222656 248.339844 " fill-opacity="1" fill-rule="nonzero"/><g clip-path="url(#40313db77b)"><path fill="#0c5ca4" d="M 490.207031 142.371094 C 489.21875 142.371094 488.238281 142.46875 487.269531 142.660156 C 486.296875 142.851562 485.355469 143.140625 484.441406 143.515625 C 483.527344 143.894531 482.660156 144.359375 481.839844 144.910156 C 481.015625 145.460938 480.253906 146.082031 479.554688 146.785156 C 478.855469 147.484375 478.230469 148.242188 477.683594 149.066406 C 477.132812 149.886719 476.667969 150.757812 476.289062 151.671875 C 475.910156 152.585938 475.625 153.527344 475.433594 154.496094 C 475.238281 155.46875 475.144531 156.445312 475.144531 157.4375 L 475.144531 202.628906 C 475.144531 203.621094 475.238281 204.601562 475.433594 205.570312 C 475.625 206.539062 475.910156 207.480469 476.289062 208.394531 C 476.667969 209.308594 477.132812 210.179688 477.683594 211 C 478.230469 211.824219 478.855469 212.582031 479.554688 213.285156 C 480.253906 213.984375 481.015625 214.605469 481.839844 215.15625 C 482.660156 215.707031 483.527344 216.171875 484.441406 216.550781 C 485.355469 216.925781 486.296875 217.214844 487.269531 217.40625 C 488.238281 217.597656 489.21875 217.695312 490.207031 217.695312 C 491.195312 217.695312 492.175781 217.597656 493.148438 217.40625 C 494.117188 217.214844 495.058594 216.925781 495.972656 216.550781 C 496.886719 216.171875 497.753906 215.707031 498.578125 215.15625 C 499.398438 214.605469 500.160156 213.984375 500.859375 213.285156 C 501.558594 212.582031 502.183594 211.824219 502.734375 211 C 503.285156 210.179688 503.746094 209.308594 504.125 208.394531 C 504.503906 207.480469 504.789062 206.539062 504.984375 205.570312 C 505.175781 204.601562 505.273438 203.621094 505.273438 202.628906 L 505.273438 157.4375 C 505.273438 156.445312 505.175781 155.46875 504.984375 154.496094 C 504.789062 153.527344 504.503906 152.585938 504.125 151.671875 C 503.746094 150.757812 503.285156 149.886719 502.734375 149.066406 C 502.183594 148.242188 501.558594 147.484375 500.859375 146.785156 C 500.160156 146.082031 499.398438 145.460938 498.578125 144.910156 C 497.753906 144.359375 496.886719 143.894531 495.972656 143.515625 C 495.058594 143.140625 494.117188 142.851562 493.148438 142.660156 C 492.175781 142.46875 491.195312 142.371094 490.207031 142.371094 Z M 490.207031 142.371094 " fill-opacity="1" fill-rule="nonzero"/></g><path fill="#0c5ca4" d="M 535.402344 232.761719 C 537.402344 232.761719 539.320312 232.378906 541.167969 231.613281 C 543.011719 230.847656 544.640625 229.757812 546.054688 228.347656 L 578.007812 196.394531 C 578.367188 196.046875 578.707031 195.683594 579.027344 195.304688 C 579.351562 194.921875 579.65625 194.527344 579.9375 194.117188 C 580.222656 193.707031 580.484375 193.28125 580.726562 192.847656 C 580.96875 192.410156 581.1875 191.960938 581.382812 191.503906 C 581.578125 191.046875 581.753906 190.578125 581.902344 190.101562 C 582.054688 189.628906 582.179688 189.144531 582.285156 188.65625 C 582.386719 188.167969 582.464844 187.675781 582.519531 187.179688 C 582.570312 186.683594 582.601562 186.1875 582.605469 185.6875 C 582.609375 185.191406 582.589844 184.691406 582.542969 184.195312 C 582.5 183.699219 582.429688 183.203125 582.335938 182.714844 C 582.242188 182.226562 582.125 181.742188 581.980469 181.261719 C 581.839844 180.785156 581.671875 180.316406 581.484375 179.851562 C 581.296875 179.390625 581.085938 178.941406 580.851562 178.5 C 580.617188 178.058594 580.363281 177.628906 580.085938 177.214844 C 579.808594 176.800781 579.511719 176.398438 579.195312 176.011719 C 578.882812 175.628906 578.546875 175.257812 578.195312 174.90625 C 577.839844 174.550781 577.472656 174.21875 577.085938 173.902344 C 576.699219 173.585938 576.300781 173.289062 575.882812 173.011719 C 575.46875 172.738281 575.039062 172.480469 574.597656 172.25 C 574.160156 172.015625 573.707031 171.804688 573.246094 171.613281 C 572.785156 171.425781 572.3125 171.261719 571.835938 171.117188 C 571.359375 170.976562 570.875 170.859375 570.382812 170.761719 C 569.894531 170.667969 569.402344 170.597656 568.902344 170.554688 C 568.40625 170.507812 567.910156 170.488281 567.410156 170.492188 C 566.910156 170.496094 566.414062 170.527344 565.917969 170.582031 C 565.421875 170.632812 564.929688 170.710938 564.441406 170.816406 C 563.953125 170.917969 563.472656 171.042969 562.996094 171.195312 C 562.519531 171.34375 562.054688 171.519531 561.59375 171.714844 C 561.136719 171.914062 560.6875 172.132812 560.253906 172.375 C 559.816406 172.613281 559.390625 172.878906 558.980469 173.160156 C 558.570312 173.445312 558.175781 173.746094 557.796875 174.070312 C 557.414062 174.390625 557.050781 174.734375 556.703125 175.09375 L 524.753906 207.042969 C 524.226562 207.570312 523.746094 208.128906 523.304688 208.722656 C 522.863281 209.316406 522.46875 209.941406 522.121094 210.59375 C 521.769531 211.25 521.472656 211.925781 521.222656 212.621094 C 520.972656 213.320312 520.773438 214.03125 520.628906 214.757812 C 520.484375 215.484375 520.394531 216.21875 520.359375 216.957031 C 520.324219 217.695312 520.339844 218.4375 520.414062 219.171875 C 520.488281 219.910156 520.613281 220.636719 520.792969 221.355469 C 520.972656 222.074219 521.203125 222.777344 521.488281 223.460938 C 521.769531 224.144531 522.101562 224.804688 522.484375 225.441406 C 522.863281 226.074219 523.289062 226.679688 523.761719 227.253906 C 524.230469 227.824219 524.738281 228.359375 525.289062 228.855469 C 525.835938 229.355469 526.417969 229.808594 527.035156 230.222656 C 527.652344 230.632812 528.292969 230.996094 528.964844 231.3125 C 529.632812 231.628906 530.320312 231.894531 531.03125 232.113281 C 531.738281 232.328125 532.460938 232.488281 533.191406 232.597656 C 533.925781 232.707031 534.664062 232.761719 535.402344 232.761719 Z M 535.402344 232.761719 " fill-opacity="1" fill-rule="nonzero"/><path fill="#0c5ca4" d="M 544.230469 295.613281 C 543.882812 295.253906 543.519531 294.914062 543.140625 294.589844 C 542.761719 294.265625 542.363281 293.964844 541.953125 293.679688 C 541.542969 293.398438 541.121094 293.136719 540.683594 292.894531 C 540.246094 292.652344 539.800781 292.433594 539.339844 292.234375 C 538.882812 292.039062 538.414062 291.867188 537.941406 291.714844 C 537.464844 291.5625 536.984375 291.4375 536.496094 291.335938 C 536.007812 291.234375 535.515625 291.15625 535.019531 291.101562 C 534.523438 291.046875 534.023438 291.019531 533.527344 291.011719 C 533.027344 291.007812 532.53125 291.03125 532.03125 291.074219 C 531.535156 291.121094 531.042969 291.191406 530.550781 291.285156 C 530.0625 291.378906 529.578125 291.496094 529.101562 291.636719 C 528.621094 291.78125 528.152344 291.945312 527.691406 292.136719 C 527.230469 292.324219 526.777344 292.535156 526.335938 292.769531 C 525.894531 293.003906 525.46875 293.257812 525.050781 293.535156 C 524.636719 293.808594 524.238281 294.105469 523.851562 294.421875 C 523.464844 294.738281 523.09375 295.074219 522.742188 295.425781 C 522.390625 295.777344 522.054688 296.148438 521.738281 296.535156 C 521.421875 296.917969 521.128906 297.320312 520.851562 297.734375 C 520.574219 298.152344 520.320312 298.578125 520.085938 299.019531 C 519.851562 299.460938 519.640625 299.910156 519.453125 300.375 C 519.261719 300.835938 519.097656 301.304688 518.957031 301.78125 C 518.8125 302.261719 518.695312 302.746094 518.601562 303.234375 C 518.507812 303.726562 518.4375 304.21875 518.390625 304.714844 C 518.347656 305.210938 518.328125 305.710938 518.332031 306.207031 C 518.335938 306.707031 518.363281 307.207031 518.417969 307.699219 C 518.472656 308.195312 518.550781 308.6875 518.652344 309.175781 C 518.753906 309.664062 518.882812 310.148438 519.03125 310.621094 C 519.183594 311.097656 519.355469 311.566406 519.554688 312.023438 C 519.75 312.480469 519.96875 312.929688 520.210938 313.367188 C 520.453125 313.804688 520.714844 314.226562 520.996094 314.636719 C 521.28125 315.046875 521.585938 315.441406 521.90625 315.824219 C 522.230469 316.203125 522.570312 316.566406 522.929688 316.914062 L 554.882812 348.867188 C 555.585938 349.546875 556.347656 350.152344 557.167969 350.683594 C 557.992188 351.214844 558.855469 351.660156 559.765625 352.023438 C 560.671875 352.386719 561.609375 352.65625 562.570312 352.835938 C 563.53125 353.019531 564.5 353.105469 565.480469 353.09375 C 566.457031 353.085938 567.425781 352.984375 568.382812 352.785156 C 569.339844 352.589844 570.269531 352.300781 571.171875 351.921875 C 572.074219 351.546875 572.933594 351.082031 573.746094 350.539062 C 574.558594 349.992188 575.308594 349.375 576 348.683594 C 576.691406 347.992188 577.308594 347.238281 577.855469 346.425781 C 578.402344 345.617188 578.863281 344.757812 579.242188 343.855469 C 579.617188 342.953125 579.90625 342.023438 580.105469 341.066406 C 580.300781 340.109375 580.402344 339.140625 580.414062 338.160156 C 580.421875 337.183594 580.335938 336.214844 580.15625 335.253906 C 579.972656 334.292969 579.703125 333.355469 579.339844 332.449219 C 578.976562 331.539062 578.53125 330.675781 578 329.851562 C 577.46875 329.03125 576.863281 328.269531 576.183594 327.566406 Z M 544.230469 295.613281 " fill-opacity="1" fill-rule="nonzero"/><path fill="#0c5ca4" d="M 436.183594 230.167969 C 436.53125 230.527344 436.894531 230.871094 437.273438 231.191406 C 437.65625 231.515625 438.050781 231.816406 438.460938 232.101562 C 438.871094 232.382812 439.296875 232.648438 439.734375 232.886719 C 440.167969 233.128906 440.617188 233.347656 441.074219 233.546875 C 441.535156 233.742188 442 233.917969 442.476562 234.066406 C 442.953125 234.21875 443.433594 234.34375 443.921875 234.445312 C 444.410156 234.550781 444.902344 234.628906 445.398438 234.679688 C 445.894531 234.734375 446.390625 234.765625 446.890625 234.769531 C 447.390625 234.773438 447.886719 234.753906 448.382812 234.707031 C 448.878906 234.660156 449.375 234.59375 449.863281 234.5 C 450.355469 234.402344 450.835938 234.285156 451.316406 234.144531 C 451.792969 234 452.265625 233.835938 452.726562 233.648438 C 453.1875 233.457031 453.636719 233.246094 454.078125 233.011719 C 454.519531 232.78125 454.949219 232.523438 455.363281 232.25 C 455.777344 231.972656 456.179688 231.675781 456.566406 231.359375 C 456.953125 231.042969 457.320312 230.710938 457.671875 230.355469 C 458.027344 230.003906 458.359375 229.632812 458.675781 229.25 C 458.992188 228.863281 459.289062 228.460938 459.566406 228.046875 C 459.839844 227.632812 460.097656 227.203125 460.332031 226.761719 C 460.5625 226.320312 460.773438 225.871094 460.964844 225.410156 C 461.152344 224.945312 461.320312 224.476562 461.460938 224 C 461.601562 223.519531 461.722656 223.035156 461.816406 222.546875 C 461.910156 222.054688 461.980469 221.5625 462.023438 221.066406 C 462.070312 220.570312 462.089844 220.070312 462.085938 219.574219 C 462.082031 219.074219 462.050781 218.578125 462 218.082031 C 461.945312 217.585938 461.867188 217.09375 461.765625 216.605469 C 461.660156 216.117188 461.535156 215.632812 461.382812 215.160156 C 461.234375 214.683594 461.058594 214.214844 460.863281 213.757812 C 460.664062 213.300781 460.445312 212.851562 460.207031 212.414062 C 459.964844 211.980469 459.703125 211.554688 459.417969 211.144531 C 459.136719 210.734375 458.832031 210.339844 458.507812 209.957031 C 458.1875 209.578125 457.84375 209.214844 457.488281 208.867188 L 425.535156 176.914062 C 425.1875 176.554688 424.824219 176.214844 424.445312 175.890625 C 424.0625 175.570312 423.667969 175.265625 423.257812 174.984375 C 422.847656 174.699219 422.421875 174.4375 421.988281 174.195312 C 421.550781 173.953125 421.101562 173.734375 420.644531 173.539062 C 420.1875 173.34375 419.71875 173.167969 419.242188 173.019531 C 418.765625 172.867188 418.285156 172.742188 417.796875 172.636719 C 417.308594 172.535156 416.816406 172.457031 416.320312 172.402344 C 415.824219 172.351562 415.328125 172.320312 414.828125 172.316406 C 414.328125 172.3125 413.832031 172.332031 413.335938 172.378906 C 412.839844 172.421875 412.34375 172.492188 411.855469 172.585938 C 411.367188 172.679688 410.882812 172.796875 410.402344 172.941406 C 409.925781 173.082031 409.453125 173.25 408.992188 173.4375 C 408.53125 173.625 408.082031 173.835938 407.640625 174.070312 C 407.199219 174.304688 406.769531 174.558594 406.355469 174.835938 C 405.941406 175.113281 405.539062 175.410156 405.152344 175.726562 C 404.765625 176.039062 404.398438 176.375 404.046875 176.726562 C 403.691406 177.082031 403.359375 177.449219 403.042969 177.835938 C 402.726562 178.222656 402.429688 178.621094 402.152344 179.039062 C 401.878906 179.453125 401.621094 179.882812 401.386719 180.324219 C 401.15625 180.761719 400.945312 181.214844 400.753906 181.675781 C 400.566406 182.136719 400.398438 182.609375 400.257812 183.085938 C 400.117188 183.5625 399.996094 184.046875 399.902344 184.539062 C 399.808594 185.027344 399.738281 185.519531 399.695312 186.019531 C 399.648438 186.515625 399.628906 187.011719 399.632812 187.511719 C 399.636719 188.011719 399.667969 188.507812 399.71875 189.003906 C 399.773438 189.5 399.851562 189.992188 399.957031 190.480469 C 400.058594 190.96875 400.183594 191.449219 400.335938 191.925781 C 400.484375 192.402344 400.660156 192.867188 400.855469 193.328125 C 401.054688 193.785156 401.273438 194.234375 401.511719 194.667969 C 401.753906 195.105469 402.015625 195.53125 402.300781 195.941406 C 402.582031 196.351562 402.886719 196.746094 403.210938 197.125 C 403.53125 197.507812 403.875 197.871094 404.230469 198.214844 Z M 436.183594 230.167969 " fill-opacity="1" fill-rule="nonzero"/><path fill="#0c5ca4" d="M 595.664062 247.824219 L 550.46875 247.824219 C 549.480469 247.824219 548.5 247.921875 547.527344 248.117188 C 546.558594 248.308594 545.617188 248.59375 544.703125 248.972656 C 543.789062 249.351562 542.921875 249.816406 542.097656 250.363281 C 541.277344 250.914062 540.515625 251.539062 539.816406 252.238281 C 539.117188 252.9375 538.492188 253.699219 537.941406 254.519531 C 537.390625 255.34375 536.929688 256.210938 536.550781 257.125 C 536.171875 258.039062 535.886719 258.980469 535.691406 259.953125 C 535.5 260.921875 535.402344 261.902344 535.402344 262.890625 C 535.402344 263.878906 535.5 264.859375 535.691406 265.828125 C 535.886719 266.800781 536.171875 267.742188 536.550781 268.65625 C 536.929688 269.570312 537.390625 270.4375 537.941406 271.261719 C 538.492188 272.082031 539.117188 272.84375 539.816406 273.542969 C 540.515625 274.242188 541.277344 274.867188 542.097656 275.417969 C 542.921875 275.964844 543.789062 276.429688 544.703125 276.808594 C 545.617188 277.1875 546.558594 277.472656 547.527344 277.667969 C 548.5 277.859375 549.480469 277.957031 550.46875 277.957031 L 595.664062 277.957031 C 596.652344 277.957031 597.632812 277.859375 598.601562 277.667969 C 599.574219 277.472656 600.515625 277.1875 601.429688 276.808594 C 602.34375 276.429688 603.210938 275.964844 604.03125 275.417969 C 604.855469 274.867188 605.617188 274.242188 606.316406 273.542969 C 607.015625 272.84375 607.640625 272.082031 608.1875 271.261719 C 608.738281 270.4375 609.203125 269.570312 609.582031 268.65625 C 609.960938 267.742188 610.246094 266.800781 610.4375 265.828125 C 610.632812 264.859375 610.726562 263.878906 610.726562 262.890625 C 610.726562 261.902344 610.632812 260.921875 610.4375 259.953125 C 610.246094 258.980469 609.960938 258.039062 609.582031 257.125 C 609.203125 256.210938 608.738281 255.34375 608.1875 254.519531 C 607.640625 253.699219 607.015625 252.9375 606.316406 252.238281 C 605.617188 251.539062 604.855469 250.914062 604.03125 250.363281 C 603.210938 249.816406 602.34375 249.351562 601.429688 248.972656 C 600.515625 248.59375 599.574219 248.308594 598.601562 248.117188 C 597.632812 247.921875 596.652344 247.824219 595.664062 247.824219 Z M 595.664062 247.824219 " fill-opacity="1" fill-rule="nonzero"/></svg>