<svg xmlns="http://www.w3.org/2000/svg" xmlns:xlink="http://www.w3.org/1999/xlink" width="1024" zoomAndPan="magnify" viewBox="0 0 768 767.999994" height="1024" preserveAspectRatio="xMidYMid meet" version="1.0"><defs><clipPath id="eed64dabe6"><path d="M 157.234375 157.234375 L 610.984375 157.234375 L 610.984375 610.984375 L 157.234375 610.984375 Z M 157.234375 157.234375 " clip-rule="nonzero"/></clipPath></defs><g clip-path="url(#eed64dabe6)"><path fill="#ffffff" d="M 384.109375 157.234375 C 378.753906 157.234375 373.402344 157.425781 368.0625 157.804688 C 360.515625 158.339844 353.003906 159.25 345.546875 160.535156 C 338.09375 161.824219 330.710938 163.480469 323.421875 165.503906 C 316.132812 167.527344 308.949219 169.914062 301.898438 172.652344 C 294.851562 175.394531 287.941406 178.488281 281.199219 181.917969 C 274.460938 185.351562 267.894531 189.117188 261.527344 193.203125 C 255.164062 197.289062 249.007812 201.691406 243.082031 206.394531 C 237.15625 211.097656 231.46875 216.09375 226.046875 221.363281 C 220.617188 226.632812 215.460938 232.167969 210.585938 237.957031 C 205.714844 243.742188 201.132812 249.765625 196.863281 256.007812 C 192.589844 262.25 188.632812 268.703125 185.007812 275.339844 C 181.382812 281.980469 178.089844 288.792969 175.144531 295.761719 C 172.199219 302.730469 169.601562 309.839844 167.367188 317.0625 C 165.132812 324.292969 163.261719 331.625 161.757812 339.039062 C 160.253906 346.453125 159.125 353.933594 158.367188 361.460938 C 157.613281 368.988281 157.234375 376.546875 157.234375 384.109375 C 157.234375 389.464844 157.425781 394.816406 157.800781 400.160156 C 158.335938 407.703125 159.25 415.21875 160.535156 422.671875 C 161.820312 430.125 163.480469 437.511719 165.503906 444.800781 C 167.527344 452.089844 169.914062 459.273438 172.652344 466.320312 C 175.394531 473.371094 178.484375 480.28125 181.917969 487.019531 C 185.347656 493.761719 189.113281 500.328125 193.199219 506.691406 C 197.289062 513.054688 201.691406 519.214844 206.390625 525.140625 C 211.09375 531.0625 216.089844 536.75 221.359375 542.175781 C 226.628906 547.601562 232.167969 552.761719 237.953125 557.636719 C 243.738281 562.507812 249.761719 567.089844 256.003906 571.359375 C 262.25 575.628906 268.703125 579.585938 275.339844 583.214844 C 281.980469 586.839844 288.792969 590.132812 295.761719 593.078125 C 302.726562 596.023438 309.835938 598.617188 317.0625 600.851562 C 324.289062 603.089844 331.625 604.960938 339.039062 606.464844 C 346.449219 607.964844 353.933594 609.097656 361.460938 609.855469 C 368.984375 610.609375 376.542969 610.984375 384.109375 610.984375 C 389.460938 610.984375 394.816406 610.796875 400.15625 610.417969 C 407.703125 609.882812 415.21875 608.96875 422.671875 607.683594 C 430.125 606.398438 437.511719 604.742188 444.796875 602.71875 C 452.085938 600.695312 459.269531 598.308594 466.320312 595.566406 C 473.371094 592.828125 480.277344 589.734375 487.019531 586.304688 C 493.761719 582.875 500.328125 579.105469 506.691406 575.019531 C 513.058594 570.933594 519.214844 566.53125 525.140625 561.828125 C 531.0625 557.125 536.75 552.132812 542.175781 546.863281 C 547.601562 541.59375 552.757812 536.054688 557.632812 530.269531 C 562.503906 524.484375 567.085938 518.457031 571.355469 512.214844 C 575.628906 505.96875 579.585938 499.519531 583.210938 492.878906 C 586.839844 486.242188 590.128906 479.425781 593.074219 472.460938 C 596.019531 465.492188 598.617188 458.382812 600.851562 451.15625 C 603.085938 443.929688 604.957031 436.597656 606.460938 429.183594 C 607.964844 421.769531 609.09375 414.285156 609.851562 406.761719 C 610.605469 399.234375 610.984375 391.675781 610.984375 384.109375 C 610.984375 378.757812 610.796875 373.402344 610.417969 368.0625 C 609.882812 360.515625 608.972656 353.003906 607.683594 345.550781 C 606.398438 338.097656 604.742188 330.710938 602.71875 323.421875 C 600.691406 316.132812 598.304688 308.953125 595.566406 301.902344 C 592.824219 294.851562 589.734375 287.945312 586.304688 281.203125 C 582.871094 274.460938 579.105469 267.894531 575.019531 261.53125 C 570.929688 255.164062 566.527344 249.007812 561.828125 243.082031 C 557.125 237.160156 552.128906 231.472656 546.859375 226.046875 C 541.589844 220.621094 536.050781 215.460938 530.265625 210.585938 C 524.480469 205.714844 518.457031 201.132812 512.214844 196.863281 C 505.96875 192.59375 499.515625 188.636719 492.878906 185.011719 C 486.242188 181.382812 479.425781 178.09375 472.460938 175.144531 C 465.492188 172.199219 458.382812 169.605469 451.152344 167.367188 C 443.929688 165.132812 436.597656 163.261719 429.183594 161.757812 C 421.769531 160.257812 414.285156 159.125 406.761719 158.371094 C 399.234375 157.613281 391.671875 157.234375 384.109375 157.234375 Z M 384.109375 157.234375 " fill-opacity="1" fill-rule="nonzero"/><path fill="#ff0000" d="M 384.109375 157.234375 C 378.753906 157.234375 373.402344 157.425781 368.0625 157.804688 C 363.515625 158.21875 358.980469 158.765625 354.46875 159.453125 L 354.46875 338.921875 L 161.789062 338.921875 C 161.777344 338.960938 161.769531 339 161.757812 339.039062 C 160.257812 346.453125 159.125 353.9375 158.367188 361.464844 C 157.613281 368.988281 157.234375 376.546875 157.234375 384.109375 C 157.234375 389.464844 157.425781 394.820312 157.800781 400.160156 C 158.335938 407.707031 159.25 415.21875 160.535156 422.671875 C 161.167969 425.804688 161.867188 428.917969 162.632812 432.019531 L 354.46875 432.019531 L 354.46875 608.796875 C 356.792969 609.1875 359.125 609.539062 361.460938 609.855469 C 368.984375 610.609375 376.542969 610.988281 384.109375 610.988281 C 389.464844 610.984375 394.816406 610.796875 400.15625 610.417969 C 404.554688 610.011719 408.945312 609.480469 413.3125 608.820312 L 413.3125 432.019531 L 605.738281 432.019531 C 605.984375 431.078125 606.226562 430.132812 606.460938 429.1875 C 607.964844 421.773438 609.097656 414.289062 609.851562 406.761719 C 610.605469 399.234375 610.984375 391.675781 610.984375 384.109375 C 610.984375 378.757812 610.796875 373.402344 610.417969 368.0625 C 609.882812 360.519531 608.972656 353.003906 607.683594 345.550781 C 607.222656 343.335938 606.726562 341.125 606.199219 338.925781 L 413.3125 338.925781 L 413.3125 159.363281 C 411.132812 159 408.949219 158.667969 406.761719 158.371094 C 399.234375 157.613281 391.671875 157.238281 384.109375 157.234375 Z M 531.015625 211.285156 L 433.589844 306.84375 L 467.988281 306.84375 L 549.441406 228.988281 C 548.589844 228 547.726562 227.019531 546.859375 226.046875 C 541.816406 220.878906 536.527344 215.949219 531.015625 211.285156 Z M 219.574219 228.308594 C 216.484375 231.4375 213.488281 234.652344 210.585938 237.957031 C 207.765625 241.445312 205.046875 245.019531 202.4375 248.675781 L 263.300781 306.847656 L 301.75 306.847656 Z M 334.1875 464.089844 L 298.289062 464.089844 L 219.1875 539.695312 C 219.90625 540.527344 220.628906 541.355469 221.359375 542.175781 C 226.617188 547.589844 232.144531 552.738281 237.917969 557.601562 L 334.1875 464.085938 Z M 466.285156 464.089844 L 547.214844 541.449219 C 550.8125 537.839844 554.285156 534.109375 557.632812 530.265625 C 560 527.3125 562.289062 524.296875 564.503906 521.230469 L 504.71875 464.089844 Z M 466.285156 464.089844 " fill-opacity="1" fill-rule="nonzero"/></g><path fill="#000080" d="M 433.484375 162.855469 L 433.484375 286.867188 L 521.125 203.636719 C 518.210938 201.308594 515.238281 199.046875 512.214844 196.863281 C 505.96875 192.59375 499.515625 188.636719 492.878906 185.011719 C 486.242188 181.382812 479.425781 178.09375 472.460938 175.144531 C 465.492188 172.199219 458.382812 169.605469 451.152344 167.367188 C 445.328125 165.628906 439.433594 164.121094 433.484375 162.855469 Z M 334.050781 163.121094 C 330.488281 163.828125 326.945312 164.625 323.421875 165.503906 C 316.132812 167.527344 308.949219 169.914062 301.898438 172.652344 C 294.851562 175.394531 287.941406 178.488281 281.199219 181.917969 C 274.460938 185.351562 267.894531 189.117188 261.527344 193.203125 C 256.421875 196.550781 251.457031 200.101562 246.636719 203.847656 L 334.050781 286.867188 Z M 571.503906 256.617188 L 518.925781 306.777344 L 597.183594 306.777344 C 596.664062 305.148438 596.125 303.519531 595.566406 301.902344 C 592.824219 294.851562 589.734375 287.945312 586.304688 281.203125 C 582.871094 274.460938 579.105469 267.894531 575.019531 261.53125 C 573.867188 259.875 572.699219 258.238281 571.503906 256.617188 Z M 196.160156 257.152344 C 192.160156 263.039062 188.4375 269.105469 185.007812 275.339844 C 181.382812 281.980469 178.089844 288.792969 175.144531 295.761719 C 173.707031 299.398438 172.367188 303.074219 171.121094 306.777344 L 248.175781 306.777344 Z M 171.761719 463.644531 C 172.054688 464.539062 172.351562 465.429688 172.652344 466.320312 C 175.394531 473.371094 178.484375 480.28125 181.917969 487.019531 C 185.347656 493.761719 189.113281 500.328125 193.199219 506.691406 C 194.503906 508.574219 195.835938 510.4375 197.199219 512.28125 L 248.175781 463.644531 Z M 518.925781 463.644531 L 570.71875 513.050781 C 570.933594 512.773438 571.144531 512.496094 571.355469 512.214844 C 575.628906 505.96875 579.585938 499.519531 583.210938 492.878906 C 586.839844 486.242188 590.128906 479.425781 593.074219 472.460938 C 594.207031 469.542969 595.28125 466.605469 596.292969 463.644531 Z M 334.050781 482.34375 L 247.296875 564.738281 C 250.144531 567.015625 253.050781 569.222656 256.003906 571.359375 C 262.25 575.628906 268.703125 579.585938 275.339844 583.214844 C 281.980469 586.839844 288.792969 590.132812 295.761719 593.078125 C 302.726562 596.023438 309.835938 598.617188 317.066406 600.851562 C 322.667969 602.515625 328.335938 603.964844 334.050781 605.191406 Z M 433.484375 482.34375 L 433.484375 605.257812 C 437.277344 604.507812 441.050781 603.660156 444.796875 602.71875 C 452.085938 600.695312 459.269531 598.308594 466.320312 595.566406 C 473.371094 592.828125 480.277344 589.734375 487.019531 586.304688 C 493.761719 582.875 500.328125 579.105469 506.691406 575.019531 C 511.449219 571.878906 516.089844 568.5625 520.597656 565.074219 Z M 433.484375 482.34375 " fill-opacity="1" fill-rule="evenodd"/></svg>