<svg xmlns="http://www.w3.org/2000/svg" xmlns:xlink="http://www.w3.org/1999/xlink" width="500" zoomAndPan="magnify" viewBox="0 0 375 374.999991" height="500" preserveAspectRatio="xMidYMid meet" version="1.0"><rect x="-37.5" width="450" fill="#ffffff" y="-37.499999" height="449.999989" fill-opacity="1"/><rect x="-37.5" width="450" fill="#ffffff" y="-37.499999" height="449.999989" fill-opacity="1"/><path fill="#de1f39" d="M 41.390625 149.226562 C 56.011719 71.648438 133.625 20.929688 214.40625 36.167969 C 295.207031 51.386719 349.039062 126.867188 334.417969 204.445312 C 327.539062 240.9375 306.511719 272.820312 275.210938 294.167969 C 273.617188 295.273438 272.640625 297.035156 272.585938 298.925781 L 271.347656 346.421875 L 232.324219 316.902344 C 230.769531 315.703125 228.707031 315.289062 226.796875 315.757812 C 205.390625 321.042969 183.367188 321.625 161.402344 317.484375 C 80.601562 302.265625 26.769531 226.765625 41.390625 149.226562 Z M 21.410156 145.140625 C 4.804688 233.308594 66 319.113281 157.820312 336.414062 C 178.515625 340.3125 199.1875 340.539062 219.523438 337.089844 C 225.671875 336.058594 232.042969 337.558594 237.011719 341.304688 L 277.609375 372.042969 C 278.472656 372.679688 279.464844 373.113281 280.496094 373.300781 C 281.84375 373.5625 283.25 373.414062 284.542969 372.851562 C 286.8125 371.839844 288.273438 369.683594 288.332031 367.265625 L 289.625 317.800781 C 289.792969 311.785156 292.660156 306.179688 297.421875 302.359375 C 328.121094 277.804688 348.496094 243.597656 355.019531 205.023438 C 370.238281 115.246094 306.605469 30.5625 212.925781 15.738281 C 122.980469 1.492188 37.714844 58.640625 21.410156 145.140625 " fill-opacity="1" fill-rule="nonzero"/><path fill="#de1f39" d="M 211.464844 65.613281 C 227.808594 65.613281 235.980469 76.316406 235.980469 88.554688 C 235.980469 103.832031 221.792969 117.980469 203.292969 117.980469 C 187.8125 117.980469 178.777344 109.191406 179.1875 94.664062 C 179.1875 82.425781 189.949219 65.613281 211.464844 65.613281 " fill-opacity="1" fill-rule="nonzero"/><path fill="#de1f39" d="M 161.140625 291.28125 C 148.226562 291.28125 138.761719 283.632812 147.8125 250.007812 L 162.621094 190.347656 C 165.1875 180.789062 165.621094 176.964844 162.621094 176.964844 C 158.742188 176.964844 141.984375 183.5625 132.089844 190.066406 L 125.640625 179.757812 C 157.035156 154.136719 193.152344 139.125 208.632812 139.125 C 221.53125 139.125 223.683594 154.023438 217.238281 176.964844 L 200.273438 239.679688 C 197.277344 250.757812 198.570312 254.582031 201.570312 254.582031 C 205.449219 254.582031 218.136719 249.988281 230.601562 240.429688 L 237.929688 249.988281 C 207.378906 279.789062 174.035156 291.28125 161.140625 291.28125 " fill-opacity="1" fill-rule="nonzero"/></svg>