<?xml version="1.0" encoding="utf-8"?>
<svg width="1024" zoomAndPan="magnify" viewBox="199.153 230.057 369.694 321.621" height="1024" preserveAspectRatio="xMidYMid meet" version="1.0" xmlns="http://www.w3.org/2000/svg">
  <defs>
    <clipPath id="afea49f0c9">
      <path d="M 251 267 L 517 267 L 517 500.878906 L 251 500.878906 Z M 251 267 " clip-rule="nonzero"/>
    </clipPath>
    <clipPath id="896a0cf3da">
      <path d="M 502 392 L 537.898438 392 L 537.898438 407 L 502 407 Z M 502 392 " clip-rule="nonzero"/>
    </clipPath>
    <clipPath id="88238d891d">
      <path d="M 230.398438 392 L 266 392 L 266 407 L 230.398438 407 Z M 230.398438 392 " clip-rule="nonzero"/>
    </clipPath>
  </defs>
  <g clip-path="url(#afea49f0c9)">
    <path fill="#e41c34" d="M 514.738281 479.136719 L 396.550781 274.402344 L 396.53125 274.402344 C 395.164062 272.042969 393.375 270.21875 391.308594 269.03125 C 389.222656 267.828125 386.75 267.191406 384.015625 267.191406 C 381.277344 267.191406 378.789062 267.828125 376.71875 269.03125 C 374.636719 270.21875 372.847656 272.042969 371.496094 274.402344 L 371.480469 274.402344 L 253.273438 479.136719 L 253.273438 479.167969 C 251.9375 481.464844 251.285156 483.921875 251.285156 486.378906 C 251.285156 488.820312 251.9375 491.28125 253.273438 493.589844 L 253.273438 493.625 C 254.625 495.953125 256.414062 497.757812 258.5 498.964844 L 258.53125 498.964844 C 260.613281 500.167969 263.074219 500.804688 265.792969 500.804688 L 502.21875 500.804688 C 504.9375 500.804688 507.414062 500.167969 509.480469 498.964844 L 509.511719 498.964844 C 511.613281 497.757812 513.402344 495.953125 514.738281 493.625 C 516.074219 491.328125 516.742188 488.855469 516.742188 486.378906 C 516.742188 483.90625 516.074219 481.429688 514.738281 479.136719 Z M 514.738281 479.136719 " fill-opacity="1" fill-rule="nonzero"/>
  </g>
  <path fill="#fefefe" d="M 377.679688 420.675781 C 378.203125 424.710938 380.496094 426.992188 384.015625 426.992188 C 387.691406 426.992188 389.988281 424.710938 390.507812 420.675781 L 396.484375 352.660156 C 397.183594 345.804688 393.667969 341.050781 386.8125 341.050781 L 381.199219 341.050781 C 374.34375 341.050781 370.828125 345.804688 371.527344 352.660156 Z M 371.527344 453.707031 C 371.527344 460.558594 376.980469 465.835938 384.015625 465.835938 C 391.210938 465.835938 396.484375 460.558594 396.484375 453.707031 L 396.484375 451.949219 C 396.484375 445.09375 391.210938 439.835938 384.015625 439.835938 C 376.980469 439.835938 371.527344 445.09375 371.527344 451.949219 Z M 371.527344 453.707031 " fill-opacity="1" fill-rule="nonzero"/>
  <path fill="#e41c34" d="M 497.546875 378.769531 C 494.226562 380.675781 490.011719 379.535156 488.105469 376.214844 C 486.199219 372.910156 487.339844 368.679688 490.644531 366.773438 L 512.394531 354.222656 C 515.714844 352.316406 519.949219 353.457031 521.835938 356.761719 C 523.742188 360.082031 522.601562 364.316406 519.296875 366.203125 Z M 497.546875 378.769531 " fill-opacity="1" fill-rule="nonzero"/>
  <g clip-path="url(#896a0cf3da)">
    <path fill="#e41c34" d="M 509.726562 406.789062 C 505.882812 406.789062 502.773438 403.679688 502.773438 399.835938 C 502.773438 396.011719 505.882812 392.886719 509.726562 392.886719 L 530.675781 392.886719 C 534.503906 392.886719 537.628906 396.011719 537.628906 399.835938 C 537.628906 403.679688 534.503906 406.789062 530.675781 406.789062 Z M 509.726562 406.789062 " fill-opacity="1" fill-rule="nonzero"/>
  </g>
  <path fill="#e41c34" d="M 484.457031 349.144531 C 482.570312 352.464844 478.335938 353.601562 475.015625 351.699219 C 471.710938 349.792969 470.574219 345.578125 472.476562 342.257812 L 482.945312 324.121094 C 484.847656 320.800781 489.082031 319.660156 492.386719 321.566406 C 495.707031 323.46875 496.847656 327.703125 494.941406 331.007812 Z M 484.457031 349.144531 " fill-opacity="1" fill-rule="nonzero"/>
  <path fill="#e41c34" d="M 277.398438 366.773438 C 280.703125 368.695312 281.84375 372.925781 279.921875 376.25 C 278 379.554688 273.769531 380.691406 270.449219 378.769531 L 248.699219 366.203125 C 245.394531 364.300781 244.253906 360.050781 246.175781 356.746094 C 248.097656 353.425781 252.328125 352.300781 255.648438 354.222656 Z M 277.398438 366.773438 " fill-opacity="1" fill-rule="nonzero"/>
  <g clip-path="url(#88238d891d)">
    <path fill="#e41c34" d="M 258.304688 392.886719 C 262.128906 392.886719 265.238281 396.011719 265.238281 399.835938 C 265.238281 403.679688 262.128906 406.789062 258.304688 406.789062 L 237.351562 406.789062 C 233.507812 406.789062 230.398438 403.679688 230.398438 399.835938 C 230.398438 396.011719 233.507812 392.886719 237.351562 392.886719 Z M 258.304688 392.886719 " fill-opacity="1" fill-rule="nonzero"/>
  </g>
  <path fill="#e41c34" d="M 295.550781 342.257812 C 297.457031 345.578125 296.300781 349.792969 292.996094 351.699219 C 289.691406 353.601562 285.457031 352.464844 283.554688 349.144531 L 273.085938 331.007812 C 271.179688 327.703125 272.320312 323.46875 275.625 321.566406 C 278.945312 319.660156 283.160156 320.800781 285.066406 324.121094 Z M 295.550781 342.257812 " fill-opacity="1" fill-rule="nonzero"/>
</svg>