<svg xmlns="http://www.w3.org/2000/svg" xmlns:xlink="http://www.w3.org/1999/xlink" width="1935" zoomAndPan="magnify" viewBox="0 0 1451.25 1451.249935" height="1935" preserveAspectRatio="xMidYMid meet" version="1.0"><defs><clipPath id="ee57fa0484"><path d="M 1217 741 L 1361.851562 741 L 1361.851562 800 L 1217 800 Z M 1217 741 " clip-rule="nonzero"/></clipPath><clipPath id="04b8c75a73"><path d="M 89.007812 741 L 234 741 L 234 800 L 89.007812 800 Z M 89.007812 741 " clip-rule="nonzero"/></clipPath></defs><path fill="#ff0000" d="M 1267.144531 1098.664062 L 777.433594 250.835938 L 777.367188 250.835938 C 771.703125 241.0625 764.28125 233.511719 755.714844 228.589844 C 747.082031 223.601562 736.828125 220.972656 725.496094 220.972656 C 714.164062 220.972656 703.84375 223.601562 695.277344 228.589844 C 686.644531 233.511719 679.222656 241.0625 673.625 250.835938 L 673.558594 250.835938 L 183.78125 1098.664062 L 183.78125 1098.796875 C 178.25 1108.304688 175.550781 1118.484375 175.550781 1128.664062 C 175.550781 1138.773438 178.25 1148.953125 183.78125 1158.527344 L 183.78125 1158.664062 C 189.378906 1168.304688 196.796875 1175.785156 205.433594 1180.777344 L 205.566406 1180.777344 C 214.199219 1185.765625 224.386719 1188.394531 235.652344 1188.394531 L 1215.273438 1188.394531 C 1226.539062 1188.394531 1236.792969 1185.765625 1245.359375 1180.777344 L 1245.492188 1180.777344 C 1254.195312 1175.785156 1261.613281 1168.304688 1267.144531 1158.664062 C 1272.675781 1149.15625 1275.441406 1138.910156 1275.441406 1128.664062 C 1275.441406 1118.414062 1272.675781 1108.167969 1267.144531 1098.664062 Z M 1267.144531 1098.664062 " fill-opacity="1" fill-rule="nonzero"/><path fill="#fefefe" d="M 699.257812 856.570312 C 701.414062 873.289062 710.925781 882.730469 725.496094 882.730469 C 740.742188 882.730469 750.25 873.289062 752.410156 856.570312 L 777.164062 574.90625 C 780.066406 546.523438 765.496094 526.839844 737.097656 526.839844 L 713.828125 526.839844 C 685.429688 526.839844 670.859375 546.523438 673.761719 574.90625 Z M 673.761719 993.359375 C 673.761719 1021.742188 696.355469 1043.582031 725.496094 1043.582031 C 755.3125 1043.582031 777.164062 1021.742188 777.164062 993.359375 L 777.164062 986.078125 C 777.164062 957.695312 755.3125 935.921875 725.496094 935.921875 C 696.355469 935.921875 673.761719 957.695312 673.761719 986.078125 Z M 673.761719 993.359375 " fill-opacity="1" fill-rule="nonzero"/><path fill="#ff0000" d="M 1195.914062 683.042969 C 1182.15625 690.929688 1164.683594 686.210938 1156.792969 672.457031 C 1148.898438 658.773438 1153.621094 641.242188 1167.316406 633.355469 L 1257.433594 581.378906 C 1271.191406 573.492188 1288.730469 578.210938 1296.554688 591.894531 C 1304.449219 605.648438 1299.726562 623.175781 1286.03125 630.996094 Z M 1195.914062 683.042969 " fill-opacity="1" fill-rule="nonzero"/><g clip-path="url(#ee57fa0484)"><path fill="#ff0000" d="M 1246.371094 799.066406 C 1230.453125 799.066406 1217.566406 786.1875 1217.566406 770.277344 C 1217.566406 754.4375 1230.453125 741.492188 1246.371094 741.492188 L 1333.183594 741.492188 C 1349.035156 741.492188 1361.984375 754.4375 1361.984375 770.277344 C 1361.984375 786.1875 1349.035156 799.066406 1333.183594 799.066406 Z M 1246.371094 799.066406 " fill-opacity="1" fill-rule="nonzero"/></g><path fill="#ff0000" d="M 1141.683594 560.34375 C 1133.859375 574.097656 1116.320312 578.816406 1102.558594 570.929688 C 1088.867188 563.042969 1084.144531 545.582031 1092.039062 531.828125 L 1135.410156 456.726562 C 1143.300781 442.972656 1160.839844 438.253906 1174.53125 446.140625 C 1188.292969 454.03125 1193.015625 471.558594 1185.121094 485.242188 Z M 1141.683594 560.34375 " fill-opacity="1" fill-rule="nonzero"/><path fill="#ff0000" d="M 283.746094 633.355469 C 297.4375 641.3125 302.160156 658.839844 294.199219 672.59375 C 286.242188 686.277344 268.703125 690.996094 254.941406 683.042969 L 164.824219 630.996094 C 151.132812 623.109375 146.410156 605.511719 154.371094 591.828125 C 162.328125 578.074219 179.867188 573.421875 193.628906 581.378906 Z M 283.746094 633.355469 " fill-opacity="1" fill-rule="nonzero"/><g clip-path="url(#04b8c75a73)"><path fill="#ff0000" d="M 204.621094 741.492188 C 220.472656 741.492188 233.359375 754.4375 233.359375 770.277344 C 233.359375 786.1875 220.472656 799.066406 204.621094 799.066406 L 117.808594 799.066406 C 101.890625 799.066406 89.007812 786.1875 89.007812 770.277344 C 89.007812 754.4375 101.890625 741.492188 117.808594 741.492188 Z M 204.621094 741.492188 " fill-opacity="1" fill-rule="nonzero"/></g><path fill="#ff0000" d="M 358.957031 531.828125 C 366.847656 545.582031 362.058594 563.042969 348.367188 570.929688 C 334.671875 578.816406 317.132812 574.097656 309.242188 560.34375 L 265.871094 485.242188 C 257.976562 471.558594 262.699219 454.03125 276.394531 446.140625 C 290.152344 438.253906 307.625 442.972656 315.515625 456.726562 Z M 358.957031 531.828125 " fill-opacity="1" fill-rule="nonzero"/></svg>