<svg xmlns="http://www.w3.org/2000/svg" xmlns:xlink="http://www.w3.org/1999/xlink" width="1935" zoomAndPan="magnify" viewBox="0 0 1451.25 1451.249935" height="1935" preserveAspectRatio="xMidYMid meet" version="1.0"><defs><clipPath id="e8febafa5d"><path d="M 145.058594 118 L 1282.222656 118 L 1282.222656 1333 L 145.058594 1333 Z M 145.058594 118 " clip-rule="nonzero"/></clipPath></defs><g clip-path="url(#e8febafa5d)"><path fill="#040606" d="M 1075.515625 1167.15625 L 352.605469 1167.15625 L 352.605469 283.484375 L 1075.515625 283.484375 Z M 575.570312 1278.960938 L 541.714844 1207.046875 L 727.914062 1207.046875 Z M 198.644531 480.035156 L 312.390625 426.234375 L 312.390625 721.007812 Z M 852.441406 171.679688 L 886.40625 243.375 L 700.207031 243.375 Z M 1229.476562 970.605469 L 1115.621094 1024.40625 L 1115.621094 729.417969 Z M 1115.621094 1068.609375 L 1282.953125 989.796875 L 1115.621094 635.183594 L 1115.621094 243.375 L 930.609375 243.375 L 871.632812 118.09375 L 605.972656 243.375 L 312.390625 243.375 L 312.390625 382.03125 L 145.058594 460.953125 L 312.390625 815.453125 L 312.390625 1207.261719 L 497.402344 1207.261719 L 556.488281 1332.546875 L 822.148438 1207.261719 L 1115.621094 1207.261719 L 1115.621094 1068.609375 " fill-opacity="1" fill-rule="nonzero"/></g><path fill="#040606" d="M 613.628906 584.726562 L 452.984375 584.726562 L 452.984375 383.96875 L 613.628906 383.96875 Z M 653.738281 343.753906 L 412.765625 343.753906 L 412.765625 624.941406 L 653.738281 624.941406 L 653.738281 343.753906 " fill-opacity="1" fill-rule="nonzero"/><path fill="#040606" d="M 714.007812 343.753906 L 1015.246094 343.753906 L 1015.246094 383.96875 L 714.007812 383.96875 L 714.007812 343.753906 " fill-opacity="1" fill-rule="nonzero"/><path fill="#040606" d="M 714.007812 464.292969 L 1015.246094 464.292969 L 1015.246094 504.402344 L 714.007812 504.402344 L 714.007812 464.292969 " fill-opacity="1" fill-rule="nonzero"/><path fill="#040606" d="M 714.007812 584.726562 L 1015.246094 584.726562 L 1015.246094 624.941406 L 714.007812 624.941406 L 714.007812 584.726562 " fill-opacity="1" fill-rule="nonzero"/><path fill="#040606" d="M 412.765625 705.265625 L 1015.246094 705.265625 L 1015.246094 745.375 L 412.765625 745.375 L 412.765625 705.265625 " fill-opacity="1" fill-rule="nonzero"/><path fill="#040606" d="M 412.765625 825.804688 L 693.953125 825.804688 L 693.953125 865.914062 L 412.765625 865.914062 L 412.765625 825.804688 " fill-opacity="1" fill-rule="nonzero"/><path fill="#040606" d="M 946.351562 1049.957031 L 933.953125 1068.609375 L 917.457031 1039.929688 C 930.394531 1035.941406 942.578125 1029.902344 953.574219 1022.25 L 968.667969 1048.554688 Z M 826.890625 1068.609375 L 814.492188 1049.957031 L 791.957031 1048.554688 L 804.140625 1027.53125 C 815.894531 1034.214844 828.292969 1039.5 841.875 1042.519531 Z M 874.652344 805.644531 C 930.179688 805.644531 975.136719 850.601562 975.136719 906.019531 C 975.136719 961.546875 930.179688 1006.507812 874.652344 1006.507812 C 819.234375 1006.507812 774.277344 961.546875 774.277344 906.019531 C 774.277344 850.601562 819.234375 805.644531 874.652344 805.644531 Z M 1015.246094 906.019531 C 1015.246094 828.609375 952.171875 765.535156 874.652344 765.535156 C 797.242188 765.535156 734.167969 828.609375 734.167969 906.019531 C 734.167969 943.324219 748.722656 977.074219 772.550781 1002.410156 L 725.003906 1084.890625 L 792.171875 1088.988281 L 829.261719 1145.160156 L 880.476562 1056.425781 L 931.582031 1145.160156 L 968.667969 1088.988281 L 1035.839844 1084.890625 L 983.65625 994.539062 C 1003.492188 970.386719 1015.246094 939.550781 1015.246094 906.019531 " fill-opacity="1" fill-rule="nonzero"/></svg>