<svg xmlns="http://www.w3.org/2000/svg" xmlns:xlink="http://www.w3.org/1999/xlink" width="1935" zoomAndPan="magnify" viewBox="0 0 1451.25 1451.249935" height="1935" preserveAspectRatio="xMidYMid meet" version="1.0"><defs><clipPath id="478451c727"><path d="M 0 0 L 1450.5 0 L 1450.5 1450.5 L 0 1450.5 Z M 0 0 " clip-rule="nonzero"/></clipPath></defs><g clip-path="url(#478451c727)"><path fill="#ffffff" d="M 0 0 L 1450.5 0 L 1450.5 1450.5 L 0 1450.5 Z M 0 0 " fill-opacity="1" fill-rule="nonzero"/><path fill="#ffffff" d="M 0 0 L 1450.5 0 L 1450.5 1450.5 L 0 1450.5 Z M 0 0 " fill-opacity="1" fill-rule="nonzero"/></g><path fill="#000000" d="M 1267.160156 684.125 L 1235.75 730.722656 L 555.550781 272.46875 L 586.960938 225.875 C 601.367188 204.445312 630.566406 198.726562 651.914062 213.140625 L 1254.425781 619.074219 C 1275.851562 633.488281 1281.570312 662.695312 1267.160156 684.125 Z M 1048.050781 1009.53125 L 1082.585938 762.980469 L 1173.003906 823.910156 Z M 984.007812 1223.367188 C 980.425781 1248.914062 956.714844 1266.835938 931.175781 1263.25 L 211.789062 1162.433594 C 186.25 1158.847656 168.257812 1135.054688 171.917969 1109.507812 L 216.058594 794.171875 L 1028.226562 908.105469 Z M 239.464844 627.3125 C 243.046875 601.6875 266.757812 583.84375 292.296875 587.425781 L 1011.683594 688.320312 C 1037.300781 691.828125 1055.214844 715.546875 1051.558594 741.167969 L 1043.78125 796.761719 L 231.613281 682.90625 Z M 492.882812 365.660156 L 897.402344 638.214844 L 360.074219 562.792969 Z M 1273.257812 591.164062 L 670.820312 185.226562 C 634 160.441406 583.832031 170.128906 558.980469 207.039062 L 322.871094 557.609375 L 297.023438 554.023438 C 253.035156 547.847656 212.246094 578.65625 206.074219 622.660156 L 138.601562 1104.78125 C 132.351562 1148.78125 163.148438 1189.582031 207.0625 1195.757812 L 926.449219 1296.652344 C 970.4375 1302.828125 1011.226562 1271.945312 1017.402344 1228.015625 L 1037.375 1085.714844 L 1295.0625 702.886719 C 1319.917969 666.128906 1310.082031 615.949219 1273.257812 591.164062 " fill-opacity="1" fill-rule="nonzero"/><path fill="#000000" d="M 604.417969 936.472656 L 951.304688 985.203125 L 955.117188 957.671875 L 608.304688 909.019531 L 604.417969 936.472656 " fill-opacity="1" fill-rule="nonzero"/><path fill="#000000" d="M 596.183594 995.957031 L 942.992188 1044.535156 L 946.804688 1017.003906 L 599.996094 968.347656 L 596.183594 995.957031 " fill-opacity="1" fill-rule="nonzero"/></svg>