<svg xmlns="http://www.w3.org/2000/svg" xmlns:xlink="http://www.w3.org/1999/xlink" width="1935" zoomAndPan="magnify" viewBox="0 0 1451.25 1451.249935" height="1935" preserveAspectRatio="xMidYMid meet" version="1.0"><defs><clipPath id="aaf78bf1c4"><path d="M 208.210938 107.84375 L 1242.644531 107.84375 L 1242.644531 761 L 208.210938 761 Z M 208.210938 107.84375 " clip-rule="nonzero"/></clipPath><clipPath id="8f9a30bdf3"><path d="M 497 555 L 955 555 L 955 1342.457031 L 497 1342.457031 Z M 497 555 " clip-rule="nonzero"/></clipPath></defs><g clip-path="url(#aaf78bf1c4)"><path fill="#000000" d="M 1061.640625 760.171875 L 944.71875 760.171875 C 937.671875 760.171875 931.976562 754.480469 931.976562 747.4375 C 931.976562 740.410156 937.671875 734.703125 944.71875 734.703125 L 1061.640625 734.703125 C 1147.457031 734.703125 1217.179688 665.011719 1217.179688 579.238281 C 1217.179688 493.476562 1147.457031 423.785156 1061.640625 423.785156 C 1038.847656 423.785156 1017.058594 428.472656 996.621094 438.183594 C 992.261719 440.199219 987.558594 439.53125 983.539062 436.847656 C 979.859375 434.164062 977.84375 429.480469 978.183594 425.121094 C 978.183594 423.785156 978.183594 422.113281 978.183594 420.4375 C 978.183594 360.457031 929.242188 311.875 869.574219 311.875 C 860.511719 311.875 852.472656 312.871094 844.761719 314.546875 C 841.082031 315.554688 837.390625 314.886719 834.378906 312.542969 C 831.355469 310.527344 829.351562 307.179688 829.011719 303.5 C 816.269531 206.667969 733.140625 133.625 635.59375 133.625 C 527.664062 133.625 439.832031 221.078125 439.832031 328.957031 C 439.832031 359.109375 446.535156 388.269531 460.285156 416.078125 C 462.628906 420.761719 461.960938 426.457031 458.269531 430.488281 C 454.589844 434.503906 449.222656 435.839844 444.191406 433.835938 C 427.09375 427.464844 408.996094 424.113281 389.894531 424.113281 C 304.078125 424.113281 234.015625 493.804688 234.015625 579.578125 C 234.015625 665.355469 304.078125 735.042969 389.894531 735.042969 L 507.761719 735.042969 C 514.792969 735.042969 520.488281 740.738281 520.488281 747.777344 C 520.488281 754.804688 514.792969 760.511719 507.761719 760.511719 L 389.894531 760.511719 C 289.664062 760.511719 208.210938 679.09375 208.210938 579.238281 C 208.210938 479.394531 289.664062 397.976562 389.894531 397.976562 C 402.292969 397.976562 414.695312 399.3125 426.425781 401.667969 C 418.386719 378.214844 414.027344 353.757812 414.027344 328.957031 C 414.027344 207.007812 513.25 107.832031 635.265625 107.832031 C 741.519531 107.832031 832.363281 183.882812 852.132812 286.75 C 857.503906 286.066406 863.199219 285.742188 869.234375 285.742188 C 939.296875 285.742188 996.949219 339.347656 1003.324219 407.703125 C 1022.085938 401.328125 1041.203125 398.320312 1061.316406 398.320312 C 1161.207031 398.320312 1242.660156 479.734375 1242.660156 579.578125 C 1242.660156 679.421875 1161.875 760.171875 1061.640625 760.171875 " fill-opacity="1" fill-rule="evenodd"/></g><path fill="#000000" d="M 610.453125 555.457031 L 841.082031 555.457031 L 841.082031 530.660156 L 610.453125 530.660156 Z M 854.148438 581.253906 L 597.714844 581.253906 C 590.683594 581.253906 584.972656 575.5625 584.972656 568.519531 L 584.972656 518.265625 C 584.972656 511.222656 590.683594 505.53125 597.714844 505.53125 L 854.148438 505.53125 C 861.195312 505.53125 866.890625 511.222656 866.890625 518.265625 L 866.890625 568.519531 C 866.890625 575.5625 861.195312 581.253906 854.148438 581.253906 " fill-opacity="1" fill-rule="evenodd"/><path fill="#000000" d="M 610.453125 505.203125 L 841.082031 505.203125 L 841.082031 389.941406 L 610.453125 389.941406 Z M 854.148438 531 L 597.714844 531 C 590.683594 531 584.972656 525.304688 584.972656 518.265625 L 584.972656 377.207031 C 584.972656 370.167969 590.683594 364.476562 597.714844 364.476562 L 854.148438 364.476562 C 861.195312 364.476562 866.890625 370.167969 866.890625 377.207031 L 866.890625 517.925781 C 866.890625 524.964844 861.195312 531 854.148438 531 " fill-opacity="1" fill-rule="evenodd"/><path fill="#000000" d="M 726.4375 1159.335938 C 719.40625 1159.335938 713.695312 1153.632812 713.695312 1146.601562 L 713.695312 732.820312 C 713.695312 725.777344 719.40625 720.085938 726.4375 720.085938 C 733.480469 720.085938 739.175781 725.777344 739.175781 732.820312 L 739.175781 1146.261719 C 739.515625 1153.632812 733.820312 1159.335938 726.4375 1159.335938 " fill-opacity="1" fill-rule="evenodd"/><path fill="#000000" d="M 785.09375 1016.945312 L 731.492188 1016.945312 C 724.445312 1016.945312 718.75 1011.242188 718.75 1004.199219 C 718.75 997.171875 724.445312 991.476562 731.492188 991.476562 L 785.09375 991.476562 C 809.90625 991.476562 830.6875 963.996094 830.6875 931.839844 L 830.6875 798.820312 C 830.6875 791.792969 836.382812 786.085938 843.425781 786.085938 C 850.457031 786.085938 856.167969 791.792969 856.167969 798.820312 L 856.167969 931.5 C 856.167969 978.746094 824.324219 1016.945312 785.09375 1016.945312 " fill-opacity="1" fill-rule="evenodd"/><path fill="#000000" d="M 723.292969 1061.496094 L 668.117188 1061.496094 C 628.890625 1061.496094 596.707031 1023.308594 596.707031 976.0625 L 596.707031 873.875 C 596.707031 866.835938 602.414062 861.140625 609.445312 861.140625 C 616.492188 861.140625 622.1875 866.835938 622.1875 873.875 L 622.1875 976.0625 C 622.1875 1008.558594 642.964844 1035.699219 667.777344 1035.699219 L 722.964844 1035.699219 C 729.996094 1035.699219 735.695312 1041.394531 735.695312 1048.433594 C 735.695312 1055.476562 730.664062 1061.496094 723.292969 1061.496094 " fill-opacity="1" fill-rule="evenodd"/><path fill="#000000" d="M 716.054688 719.195312 L 737.171875 719.195312 L 726.4375 708.476562 Z M 768.335938 744.992188 L 685.203125 744.992188 C 679.851562 744.992188 675.488281 741.980469 673.472656 736.953125 C 671.46875 732.257812 672.476562 726.5625 676.15625 722.886719 L 717.730469 681.007812 C 720.074219 678.652344 723.425781 677.316406 726.777344 677.316406 C 730.128906 677.316406 733.480469 678.652344 735.824219 681.007812 L 777.722656 722.886719 C 781.414062 726.5625 782.425781 731.929688 780.40625 736.953125 C 778.0625 741.980469 773.363281 744.992188 768.335938 744.992188 " fill-opacity="1" fill-rule="evenodd"/><path fill="#000000" d="M 838.058594 784.867188 L 848.453125 784.867188 L 848.453125 774.476562 L 838.058594 774.476562 Z M 861.523438 810.664062 L 825.316406 810.664062 C 818.289062 810.664062 812.589844 804.96875 812.589844 797.929688 L 812.589844 761.753906 C 812.589844 754.714844 818.289062 749.007812 825.316406 749.007812 L 861.523438 749.007812 C 868.566406 749.007812 874.261719 754.714844 874.261719 761.753906 L 874.261719 797.929688 C 874.261719 804.96875 868.566406 810.664062 861.523438 810.664062 " fill-opacity="1" fill-rule="evenodd"/><path fill="#000000" d="M 609.785156 846.851562 C 606.09375 846.851562 603.082031 849.859375 603.082031 853.210938 C 603.082031 856.902344 606.09375 859.910156 609.785156 859.910156 C 613.480469 859.910156 616.492188 856.902344 616.492188 853.210938 C 616.492188 849.859375 613.480469 846.851562 609.785156 846.851562 Z M 609.785156 885.71875 C 592.019531 885.71875 577.277344 871.308594 577.277344 853.210938 C 577.277344 835.464844 591.691406 821.054688 609.785156 821.054688 C 627.882812 821.054688 642.296875 835.464844 642.296875 853.210938 C 642.296875 871.308594 627.554688 885.71875 609.785156 885.71875 " fill-opacity="1" fill-rule="evenodd"/><path fill="#000000" d="M 660.066406 459.292969 L 683.203125 459.292969 L 683.203125 436.179688 L 660.066406 436.179688 Z M 696.269531 485.089844 L 647.324219 485.089844 C 640.292969 485.089844 634.585938 479.394531 634.585938 472.367188 L 634.585938 423.445312 C 634.585938 416.40625 640.292969 410.710938 647.324219 410.710938 L 696.269531 410.710938 C 703.3125 410.710938 709.007812 416.40625 709.007812 423.445312 L 709.007812 472.367188 C 709.007812 479.394531 703.3125 485.089844 696.269531 485.089844 " fill-opacity="1" fill-rule="evenodd"/><path fill="#000000" d="M 768.675781 459.292969 L 791.800781 459.292969 L 791.800781 436.179688 L 768.675781 436.179688 Z M 804.878906 485.089844 L 755.9375 485.089844 C 748.90625 485.089844 743.195312 479.394531 743.195312 472.367188 L 743.195312 423.445312 C 743.195312 416.40625 748.90625 410.710938 755.9375 410.710938 L 804.878906 410.710938 C 811.910156 410.710938 817.621094 416.40625 817.621094 423.445312 L 817.621094 472.367188 C 817.621094 479.394531 811.910156 485.089844 804.878906 485.089844 " fill-opacity="1" fill-rule="evenodd"/><g clip-path="url(#8f9a30bdf3)"><path fill="#000000" d="M 549.113281 581.59375 C 535.035156 581.59375 523.304688 593.320312 523.304688 607.050781 L 523.304688 1113.988281 C 523.304688 1225.886719 614.148438 1316.6875 726.109375 1316.6875 C 838.058594 1316.6875 928.902344 1225.558594 928.902344 1113.988281 L 928.902344 607.050781 C 928.902344 592.980469 917.507812 581.59375 903.09375 581.59375 Z M 725.769531 1342.496094 C 599.730469 1342.496094 497.496094 1239.96875 497.496094 1113.988281 L 497.496094 607.050781 C 497.496094 578.910156 520.621094 555.785156 549.113281 555.785156 L 903.09375 555.785156 C 931.585938 555.785156 954.722656 578.910156 954.722656 607.050781 L 954.722656 1113.988281 C 954.378906 1239.957031 851.804688 1342.496094 725.769531 1342.496094 " fill-opacity="1" fill-rule="evenodd"/></g><path fill="#000000" d="M 938.617188 1161.222656 L 512.90625 1161.222656 C 505.875 1161.222656 500.167969 1155.527344 500.167969 1148.488281 C 500.167969 1141.460938 505.875 1135.765625 512.90625 1135.765625 L 938.957031 1135.765625 C 946 1135.765625 951.695312 1141.460938 951.695312 1148.488281 C 951.695312 1155.527344 945.660156 1161.222656 938.617188 1161.222656 " fill-opacity="1" fill-rule="evenodd"/></svg>