<svg xmlns="http://www.w3.org/2000/svg" xmlns:xlink="http://www.w3.org/1999/xlink" width="1935" zoomAndPan="magnify" viewBox="0 0 1451.25 1451.249935" height="1935" preserveAspectRatio="xMidYMid meet" version="1.0"><defs><clipPath id="9fffd99b1e"><path d="M 125.488281 539 L 677 539 L 677 912 L 125.488281 912 Z M 125.488281 539 " clip-rule="nonzero"/></clipPath></defs><path fill="#000000" d="M 233.8125 820.839844 C 233.8125 821.429688 233.78125 822.019531 233.726562 822.609375 C 233.667969 823.195312 233.582031 823.78125 233.464844 824.363281 C 233.351562 824.941406 233.207031 825.515625 233.035156 826.082031 C 232.863281 826.648438 232.664062 827.203125 232.4375 827.75 C 232.210938 828.296875 231.960938 828.832031 231.679688 829.351562 C 231.402344 829.875 231.097656 830.378906 230.769531 830.871094 C 230.441406 831.363281 230.089844 831.839844 229.714844 832.296875 C 229.339844 832.753906 228.941406 833.191406 228.523438 833.609375 C 228.105469 834.027344 227.667969 834.425781 227.210938 834.800781 C 226.753906 835.175781 226.28125 835.527344 225.789062 835.855469 C 225.296875 836.183594 224.789062 836.488281 224.269531 836.765625 C 223.746094 837.046875 223.214844 837.296875 222.667969 837.523438 C 222.121094 837.75 221.566406 837.949219 221 838.121094 C 220.433594 838.292969 219.859375 838.4375 219.28125 838.554688 C 218.699219 838.667969 218.117188 838.753906 217.527344 838.8125 C 216.941406 838.871094 216.351562 838.898438 215.757812 838.898438 C 215.167969 838.898438 214.578125 838.871094 213.988281 838.8125 C 213.398438 838.753906 212.816406 838.667969 212.234375 838.554688 C 211.65625 838.4375 211.082031 838.292969 210.519531 838.121094 C 209.953125 837.949219 209.394531 837.75 208.847656 837.523438 C 208.304688 837.296875 207.769531 837.046875 207.246094 836.765625 C 206.726562 836.488281 206.21875 836.183594 205.726562 835.855469 C 205.238281 835.527344 204.761719 835.175781 204.304688 834.800781 C 203.847656 834.425781 203.410156 834.027344 202.992188 833.609375 C 202.574219 833.191406 202.175781 832.753906 201.800781 832.296875 C 201.425781 831.839844 201.074219 831.363281 200.746094 830.871094 C 200.417969 830.378906 200.113281 829.875 199.835938 829.351562 C 199.558594 828.832031 199.304688 828.296875 199.078125 827.75 C 198.851562 827.203125 198.652344 826.648438 198.480469 826.082031 C 198.308594 825.515625 198.167969 824.941406 198.050781 824.363281 C 197.9375 823.78125 197.847656 823.195312 197.792969 822.609375 C 197.734375 822.019531 197.703125 821.429688 197.703125 820.839844 C 197.703125 820.246094 197.734375 819.65625 197.792969 819.066406 C 197.847656 818.480469 197.9375 817.894531 198.050781 817.3125 C 198.167969 816.734375 198.308594 816.160156 198.480469 815.59375 C 198.652344 815.027344 198.851562 814.472656 199.078125 813.925781 C 199.304688 813.378906 199.558594 812.84375 199.835938 812.324219 C 200.113281 811.800781 200.417969 811.296875 200.746094 810.804688 C 201.074219 810.3125 201.425781 809.835938 201.800781 809.378906 C 202.175781 808.921875 202.574219 808.484375 202.992188 808.066406 C 203.410156 807.648438 203.847656 807.25 204.304688 806.875 C 204.761719 806.5 205.238281 806.148438 205.726562 805.820312 C 206.21875 805.492188 206.726562 805.1875 207.246094 804.910156 C 207.769531 804.628906 208.304688 804.378906 208.847656 804.152344 C 209.394531 803.925781 209.953125 803.726562 210.519531 803.554688 C 211.082031 803.382812 211.65625 803.238281 212.234375 803.125 C 212.816406 803.007812 213.398438 802.921875 213.988281 802.863281 C 214.578125 802.804688 215.167969 802.777344 215.757812 802.777344 C 216.351562 802.777344 216.941406 802.804688 217.527344 802.863281 C 218.117188 802.921875 218.699219 803.007812 219.28125 803.125 C 219.859375 803.238281 220.433594 803.382812 221 803.554688 C 221.566406 803.726562 222.121094 803.925781 222.667969 804.152344 C 223.214844 804.378906 223.746094 804.628906 224.269531 804.910156 C 224.789062 805.1875 225.296875 805.492188 225.789062 805.820312 C 226.28125 806.148438 226.753906 806.5 227.210938 806.875 C 227.667969 807.25 228.105469 807.648438 228.523438 808.066406 C 228.941406 808.484375 229.339844 808.921875 229.714844 809.378906 C 230.089844 809.835938 230.441406 810.3125 230.769531 810.804688 C 231.097656 811.296875 231.402344 811.800781 231.679688 812.324219 C 231.960938 812.84375 232.210938 813.378906 232.4375 813.925781 C 232.664062 814.472656 232.863281 815.027344 233.035156 815.59375 C 233.207031 816.160156 233.351562 816.734375 233.464844 817.3125 C 233.582031 817.894531 233.667969 818.480469 233.726562 819.066406 C 233.78125 819.65625 233.8125 820.246094 233.8125 820.839844 Z M 233.8125 820.839844 " fill-opacity="1" fill-rule="nonzero"/><path fill="#000000" d="M 1064.285156 1056.546875 L 1064.285156 1037.582031 C 1064.285156 1007.777344 1039.914062 983.394531 1010.125 983.394531 L 829.585938 983.394531 C 799.796875 983.394531 775.425781 1007.777344 775.425781 1037.582031 L 775.425781 1056.546875 C 750.152344 1061.0625 730.292969 1082.734375 730.292969 1109.828125 L 730.292969 1145.953125 C 730.292969 1155.886719 738.414062 1164.015625 748.34375 1164.015625 L 1091.367188 1164.015625 C 1101.296875 1164.015625 1109.421875 1155.886719 1109.421875 1145.953125 L 1109.421875 1109.828125 C 1109.421875 1082.734375 1089.5625 1061.0625 1064.285156 1056.546875 Z M 811.535156 1037.582031 C 811.535156 1027.648438 819.65625 1019.519531 829.585938 1019.519531 L 1010.125 1019.519531 C 1020.054688 1019.519531 1028.179688 1027.648438 1028.179688 1037.582031 L 1028.179688 1055.644531 L 811.535156 1055.644531 Z M 1073.3125 1127.890625 L 766.398438 1127.890625 L 766.398438 1109.828125 C 766.398438 1099.894531 774.523438 1091.765625 784.453125 1091.765625 L 1055.261719 1091.765625 C 1065.191406 1091.765625 1073.3125 1099.894531 1073.3125 1109.828125 Z M 1073.3125 1127.890625 " fill-opacity="1" fill-rule="nonzero"/><path fill="#000000" d="M 910.828125 558.941406 C 910.828125 549.003906 902.707031 540.878906 892.777344 540.878906 L 621.96875 540.878906 C 616.550781 540.878906 612.039062 543.585938 608.429688 547.199219 C 610.234375 547.199219 653.5625 557.132812 677.9375 577 L 892.777344 577 C 902.707031 577 910.828125 568.875 910.828125 558.941406 Z M 910.828125 558.941406 " fill-opacity="1" fill-rule="nonzero"/><g clip-path="url(#9fffd99b1e)"><path fill="#000000" d="M 502.8125 718.789062 C 534.40625 717.886719 625.578125 713.371094 645.4375 704.339844 C 671.617188 692.597656 682.449219 661.894531 672.519531 631.1875 C 661.6875 596.871094 631.898438 589.644531 607.527344 583.324219 C 607.527344 583.324219 489.273438 552.617188 454.972656 545.394531 C 436.015625 540.878906 398.101562 531.847656 371.921875 556.230469 L 295.195312 623.058594 C 293.390625 623.058594 290.679688 622.15625 287.972656 622.15625 L 143.542969 622.15625 C 133.613281 622.15625 125.488281 630.285156 125.488281 640.21875 C 125.488281 650.152344 133.613281 658.28125 143.542969 658.28125 L 269.917969 658.28125 L 269.917969 875.023438 L 206.730469 875.023438 C 196.800781 875.023438 188.675781 883.152344 188.675781 893.085938 C 188.675781 903.019531 196.800781 911.148438 206.730469 911.148438 L 287.972656 911.148438 C 294.292969 911.148438 300.609375 907.535156 303.320312 902.117188 C 303.320312 902.117188 378.242188 902.117188 378.242188 902.117188 C 388.171875 902.117188 396.296875 893.988281 396.296875 884.054688 L 396.296875 824.449219 C 453.164062 796.453125 489.273438 741.367188 502.8125 718.789062 Z M 371.019531 796.453125 C 363.800781 799.164062 360.1875 805.484375 360.1875 813.613281 L 360.1875 865.992188 L 306.027344 865.992188 L 306.027344 662.796875 C 306.027344 662.796875 398.101562 582.421875 398.101562 582.421875 C 412.542969 571.582031 434.210938 577.90625 447.75 581.515625 C 481.148438 588.742188 599.402344 619.449219 599.402344 619.449219 C 621.066406 624.867188 633.703125 628.476562 639.121094 642.929688 C 642.730469 653.765625 640.925781 667.3125 630.996094 671.828125 C 616.550781 678.148438 510.035156 683.566406 492.882812 683.566406 C 485.664062 683.566406 479.34375 687.179688 476.636719 693.5 C 474.832031 694.40625 436.917969 769.363281 371.019531 796.453125 Z M 371.019531 796.453125 " fill-opacity="1" fill-rule="nonzero"/></g><path fill="#000000" d="M 694.183594 1127.890625 L 504.621094 1127.890625 C 494.691406 1127.890625 486.566406 1119.761719 486.566406 1109.828125 L 486.566406 800.96875 C 475.734375 811.808594 464 823.546875 450.457031 833.480469 L 450.457031 859.671875 C 444.140625 858.769531 437.820312 857.863281 432.402344 856.058594 L 432.402344 884.054688 C 432.402344 886.765625 432.402344 889.472656 431.5 892.183594 C 436.917969 893.085938 442.332031 893.988281 447.75 894.890625 C 448.652344 894.890625 449.554688 894.890625 450.457031 894.890625 L 450.457031 1109.828125 C 450.457031 1139.632812 474.832031 1164.015625 504.621094 1164.015625 L 696.890625 1164.015625 C 695.085938 1158.597656 694.183594 1152.273438 694.183594 1145.953125 Z M 694.183594 1127.890625 " fill-opacity="1" fill-rule="nonzero"/><path fill="#000000" d="M 660.785156 736.851562 C 649.953125 741.367188 630.09375 744.976562 606.625 747.6875 C 609.332031 753.105469 615.648438 756.71875 621.96875 756.71875 L 776.328125 756.71875 C 778.132812 754.007812 791.675781 732.335938 805.214844 720.59375 L 683.351562 720.59375 C 677.03125 727.820312 668.910156 733.238281 660.785156 736.851562 Z M 660.785156 736.851562 " fill-opacity="1" fill-rule="nonzero"/><path fill="#000000" d="M 892.777344 631.1875 L 709.53125 631.1875 C 712.238281 643.832031 712.238281 655.570312 711.335938 667.3125 L 876.527344 667.3125 L 900.898438 633.898438 C 899.09375 632.089844 896.386719 631.1875 892.777344 631.1875 Z M 892.777344 631.1875 " fill-opacity="1" fill-rule="nonzero"/><path fill="#000000" d="M 621.96875 811.808594 C 612.039062 811.808594 603.914062 819.933594 603.914062 829.867188 C 603.914062 839.804688 612.039062 847.929688 621.96875 847.929688 L 783.550781 847.929688 C 775.425781 837.09375 770.011719 824.449219 768.203125 811.808594 Z M 621.96875 811.808594 " fill-opacity="1" fill-rule="nonzero"/><path fill="#000000" d="M 621.96875 902.117188 C 612.039062 902.117188 603.914062 910.246094 603.914062 920.179688 C 603.914062 930.113281 612.039062 938.242188 621.96875 938.242188 L 892.777344 938.242188 C 893.679688 938.242188 895.484375 938.242188 896.386719 938.242188 L 849.445312 902.117188 Z M 621.96875 902.117188 " fill-opacity="1" fill-rule="nonzero"/><path fill="#000000" d="M 486.566406 515.589844 L 486.566406 260.917969 C 486.566406 250.984375 494.691406 242.855469 504.621094 242.855469 L 829.585938 242.855469 L 829.585938 387.351562 C 829.585938 417.152344 853.960938 441.539062 883.75 441.539062 L 1028.179688 441.539062 L 1028.179688 509.269531 C 1035.402344 511.980469 1042.621094 515.589844 1049.84375 521.011719 L 1064.285156 532.75 L 1064.285156 422.570312 C 1064.285156 418.058594 1062.480469 413.542969 1058.871094 409.929688 L 867.5 212.152344 C 863.890625 208.539062 860.277344 206.730469 854.863281 206.730469 L 504.621094 206.730469 C 474.832031 206.730469 450.457031 231.117188 450.457031 260.917969 L 450.457031 507.464844 C 454.972656 508.367188 459.484375 509.269531 463.09375 510.171875 C 471.21875 511.980469 478.441406 513.785156 486.566406 515.589844 Z M 883.75 405.414062 C 873.820312 405.414062 865.695312 397.285156 865.695312 387.351562 L 865.695312 268.140625 L 1002.902344 405.414062 Z M 883.75 405.414062 " fill-opacity="1" fill-rule="nonzero"/><path fill="#000000" d="M 1064.285156 918.371094 L 1032.691406 888.570312 C 1031.789062 892.183594 1029.984375 895.796875 1028.179688 898.503906 L 1028.179688 948.175781 C 1041.71875 950.882812 1053.453125 956.300781 1064.285156 964.429688 Z M 1064.285156 918.371094 " fill-opacity="1" fill-rule="nonzero"/><path fill="#000000" d="M 1029.984375 789.230469 L 1044.429688 769.363281 L 1252.949219 902.117188 C 1261.074219 907.535156 1272.808594 904.824219 1278.222656 896.699219 C 1283.640625 888.570312 1280.933594 876.832031 1272.808594 871.410156 L 1066.09375 739.558594 L 1080.535156 719.691406 C 1084.144531 720.59375 1087.757812 721.496094 1091.367188 721.496094 C 1105.8125 721.496094 1119.351562 714.273438 1127.476562 702.53125 L 1136.503906 690.792969 C 1150.945312 670.925781 1146.433594 642.023438 1127.476562 626.671875 C 1127.476562 626.671875 1027.277344 549.910156 1027.277344 549.910156 C 1007.417969 534.554688 978.53125 539.070312 964.089844 559.84375 L 955.0625 571.582031 C 944.230469 586.9375 944.230469 607.707031 953.257812 623.058594 L 866.597656 741.367188 C 861.183594 739.558594 854.863281 739.558594 848.542969 740.460938 C 836.808594 742.269531 825.976562 748.589844 818.753906 758.523438 L 809.726562 770.265625 C 795.285156 790.132812 799.796875 819.03125 818.753906 834.382812 C 818.753906 834.382812 918.953125 911.148438 918.953125 911.148438 C 938.8125 926.5 967.699219 921.984375 982.140625 901.214844 L 991.167969 889.472656 C 1002 874.121094 1002 853.347656 992.972656 837.996094 L 1007.417969 818.128906 C 1007.417969 818.128906 1249.339844 1041.195312 1249.339844 1042.097656 C 1256.558594 1048.417969 1268.292969 1048.417969 1274.613281 1041.195312 C 1281.835938 1033.96875 1280.933594 1022.230469 1273.710938 1015.90625 Z M 967.699219 813.613281 L 898.191406 760.332031 L 980.335938 647.445312 L 1049.84375 700.726562 Z M 984.851562 593.257812 C 984.851562 593.257812 993.878906 581.515625 993.878906 581.515625 C 996.585938 577.90625 1002 577 1005.613281 579.710938 L 1105.8125 656.472656 C 1110.324219 660.085938 1111.226562 666.410156 1107.617188 670.925781 C 1107.617188 670.925781 1098.589844 682.664062 1098.589844 682.664062 C 1095.882812 686.277344 1090.464844 687.179688 1086.855469 684.46875 L 986.65625 607.707031 C 983.042969 604.09375 982.140625 596.871094 984.851562 593.257812 Z M 963.1875 867.800781 C 963.1875 867.800781 954.160156 879.539062 954.160156 879.539062 C 951.449219 883.152344 946.035156 884.054688 942.421875 881.34375 L 842.226562 804.582031 C 837.710938 800.96875 836.808594 794.648438 840.417969 790.132812 C 840.417969 790.132812 849.445312 778.390625 849.445312 778.390625 C 852.15625 774.78125 857.570312 772.972656 861.183594 776.585938 L 961.378906 853.347656 C 964.992188 856.960938 965.894531 864.1875 963.1875 867.800781 Z M 963.1875 867.800781 " fill-opacity="1" fill-rule="nonzero"/></svg>