<svg xmlns="http://www.w3.org/2000/svg" xmlns:xlink="http://www.w3.org/1999/xlink" width="1935" zoomAndPan="magnify" viewBox="0 0 1451.25 1451.249935" height="1935" preserveAspectRatio="xMidYMid meet" version="1.0"><defs><clipPath id="bae31353a0"><path d="M 253.855469 145.058594 L 1325 145.058594 L 1325 1305.460938 L 253.855469 1305.460938 Z M 253.855469 145.058594 " clip-rule="nonzero"/></clipPath></defs><path fill="#100f0d" d="M 714.242188 935.292969 L 428.027344 935.292969 C 416.96875 935.292969 408.019531 926.34375 408.019531 915.289062 C 408.019531 904.230469 416.96875 895.285156 428.027344 895.285156 L 714.242188 895.285156 C 725.261719 895.285156 734.25 904.230469 734.25 915.289062 C 734.25 926.34375 725.261719 935.292969 714.242188 935.292969 " fill-opacity="1" fill-rule="nonzero"/><path fill="#100f0d" d="M 1000.414062 757.414062 L 428.027344 757.414062 C 416.96875 757.414062 408.019531 748.464844 408.019531 737.410156 C 408.019531 726.351562 416.96875 717.40625 428.027344 717.40625 L 1000.414062 717.40625 C 1011.472656 717.40625 1020.421875 726.351562 1020.421875 737.410156 C 1020.421875 748.464844 1011.472656 757.414062 1000.414062 757.414062 " fill-opacity="1" fill-rule="nonzero"/><path fill="#100f0d" d="M 1000.414062 577.382812 L 428.027344 577.382812 C 416.96875 577.382812 408.019531 568.4375 408.019531 557.382812 C 408.019531 546.324219 416.96875 537.378906 428.027344 537.378906 L 1000.414062 537.378906 C 1011.472656 537.378906 1020.421875 546.324219 1020.421875 557.382812 C 1020.421875 568.4375 1011.472656 577.382812 1000.414062 577.382812 " fill-opacity="1" fill-rule="nonzero"/><path fill="#100f0d" d="M 1000.414062 395.207031 L 428.027344 395.207031 C 416.96875 395.207031 408.019531 386.261719 408.019531 375.207031 C 408.019531 364.148438 416.96875 355.203125 428.027344 355.203125 L 1000.414062 355.203125 C 1011.472656 355.203125 1020.421875 364.148438 1020.421875 375.207031 C 1020.421875 386.261719 1011.472656 395.207031 1000.414062 395.207031 " fill-opacity="1" fill-rule="nonzero"/><g clip-path="url(#bae31353a0)"><path fill="#100f0d" d="M 1273.609375 886.222656 L 1005.53125 1108.519531 C 1001 1112.273438 984.15625 1117 975.753906 1103.675781 L 884.777344 957.128906 C 876.0625 943.066406 878.566406 924.625 890.796875 915.640625 C 911 900.832031 926.28125 909.664062 934.605469 923.609375 L 978.332031 994.011719 C 984.429688 1003.855469 994.472656 1010.578125 1005.882812 1012.414062 C 1017.292969 1014.289062 1028.980469 1011.125 1037.886719 1003.738281 L 1235.273438 840.042969 C 1248.011719 829.492188 1267.003906 831.25 1277.519531 843.949219 C 1288.109375 856.722656 1286.347656 875.671875 1273.609375 886.222656 Z M 1134.765625 1205.527344 C 1134.765625 1238.621094 1107.839844 1265.539062 1074.738281 1265.539062 L 353.703125 1265.539062 C 320.601562 1265.539062 293.675781 1238.621094 293.675781 1205.527344 L 293.675781 244.988281 C 293.675781 211.898438 320.601562 184.980469 353.703125 184.980469 L 1074.738281 184.980469 C 1107.839844 184.980469 1134.765625 211.898438 1134.765625 244.988281 L 1134.765625 871.414062 L 1012.332031 972.953125 L 968.601562 902.511719 C 958.207031 885.792969 941.167969 874.148438 921.785156 870.554688 C 902.441406 867 882.316406 871.84375 866.566406 883.800781 C 838.238281 905.402344 831.28125 946.855469 850.78125 978.226562 L 941.753906 1124.773438 C 950.898438 1139.503906 965.867188 1150.363281 983.140625 1152.355469 C 1004.242188 1154.777344 1020.226562 1148.292969 1031.089844 1139.308594 L 1134.765625 1053.355469 Z M 1308.351562 818.4375 C 1283.730469 788.746094 1239.496094 784.605469 1209.714844 809.257812 L 1174.78125 838.246094 L 1174.78125 244.988281 C 1174.78125 189.863281 1129.878906 144.972656 1074.738281 144.972656 L 353.703125 144.972656 C 298.5625 144.972656 253.660156 189.863281 253.660156 244.988281 L 253.660156 1205.527344 C 253.660156 1260.652344 298.5625 1305.542969 353.703125 1305.542969 L 1074.738281 1305.542969 C 1129.878906 1305.542969 1174.78125 1260.652344 1174.78125 1205.527344 L 1174.78125 1020.148438 L 1299.167969 917.007812 C 1328.867188 892.355469 1332.96875 848.128906 1308.351562 818.4375 " fill-opacity="1" fill-rule="nonzero"/></g></svg>