<svg xmlns="http://www.w3.org/2000/svg" xmlns:xlink="http://www.w3.org/1999/xlink" width="1024" zoomAndPan="magnify" viewBox="0 0 768 767.999994" height="1024" preserveAspectRatio="xMidYMid meet" version="1.0"><defs><clipPath id="ebb17b9fb4"><path d="M 157.71875 144.375 L 609.96875 144.375 L 609.96875 596.625 L 157.71875 596.625 Z M 157.71875 144.375 " clip-rule="nonzero"/></clipPath><clipPath id="86e2f5f950"><path d="M 295 144.375 L 473 144.375 L 473 596.625 L 295 596.625 Z M 295 144.375 " clip-rule="nonzero"/></clipPath><clipPath id="d4e6df1efe"><path d="M 157.71875 162 L 296 162 L 296 579 L 157.71875 579 Z M 157.71875 162 " clip-rule="nonzero"/></clipPath></defs><g clip-path="url(#ebb17b9fb4)"><path fill="#e92b2b" d="M 383.84375 596.625 C 508.730469 596.625 609.96875 495.386719 609.96875 370.5 C 609.96875 245.617188 508.730469 144.375 383.84375 144.375 C 258.957031 144.375 157.71875 245.617188 157.71875 370.5 C 157.71875 495.386719 258.957031 596.625 383.84375 596.625 Z M 383.84375 596.625 " fill-opacity="1" fill-rule="evenodd"/></g><g clip-path="url(#86e2f5f950)"><path fill="#fbfbfb" d="M 472.679688 578.507812 C 445.40625 590.171875 415.378906 596.625 383.84375 596.625 C 352.308594 596.625 322.28125 590.171875 295.007812 578.507812 L 295.007812 162.492188 C 322.28125 150.832031 352.308594 144.375 383.84375 144.375 C 415.378906 144.375 445.40625 150.832031 472.679688 162.492188 Z M 472.679688 578.507812 " fill-opacity="1" fill-rule="evenodd"/></g><g clip-path="url(#d4e6df1efe)"><path fill="#2a2faf" d="M 295.007812 162.492188 C 214.285156 197.011719 157.71875 277.148438 157.71875 370.5 C 157.71875 463.847656 214.285156 543.984375 295.007812 578.507812 Z M 295.007812 162.492188 " fill-opacity="1" fill-rule="evenodd"/></g></svg>