<svg xmlns="http://www.w3.org/2000/svg" xmlns:xlink="http://www.w3.org/1999/xlink" width="1935" zoomAndPan="magnify" viewBox="0 0 1451.25 1451.249935" height="1935" preserveAspectRatio="xMidYMid meet" version="1.0"><defs><clipPath id="de63470f88"><path d="M 407.425781 182.257812 L 1042 182.257812 L 1042 283 L 407.425781 283 Z M 407.425781 182.257812 " clip-rule="nonzero"/></clipPath><clipPath id="21cd88a384"><path d="M 408 1222 L 1043.097656 1222 L 1043.097656 1322 L 408 1322 Z M 408 1222 " clip-rule="nonzero"/></clipPath></defs><path fill="#000000" d="M 454.960938 296.433594 C 444.292969 296.429688 435.546875 304.917969 435.253906 315.59375 C 433.222656 389.28125 430.722656 468.605469 455.222656 532.054688 C 465.863281 559.613281 481.292969 583.570312 497.53125 604.90625 C 508.777344 619.6875 520.675781 633.539062 531.703125 646.382812 C 542.097656 658.492188 551.683594 669.667969 560.007812 680.605469 C 569.9375 693.65625 578.277344 706.636719 586.546875 719.523438 C 593.8125 730.847656 601.222656 742.523438 609.667969 753.5 L 609.667969 753.503906 C 609.664062 753.503906 609.65625 753.511719 609.652344 753.515625 C 617.769531 764.027344 626.804688 773.890625 637.566406 782.175781 C 646.207031 769.964844 654.441406 760.289062 664.277344 752.941406 C 654.128906 745.816406 645.738281 736.328125 637.050781 724.253906 L 637.023438 724.257812 C 631.5625 716.628906 625.960938 707.976562 619.714844 698.242188 C 611.53125 685.492188 602.390625 671.230469 591.367188 656.742188 C 582.210938 644.710938 571.835938 632.632812 561.605469 620.714844 C 550.472656 607.75 539.316406 594.746094 528.890625 581.042969 C 513.898438 561.34375 500.800781 540.695312 491.984375 517.863281 C 472.710938 467.945312 472.433594 404.675781 474.136719 335.957031 L 474.160156 335.960938 L 972.605469 338.929688 C 972.429688 404.824219 970.5 465.710938 951.007812 514.886719 C 929.800781 568.402344 887.074219 609.652344 840.238281 654.402344 C 838.398438 656.15625 836.917969 658.253906 835.875 660.570312 C 825.449219 683.773438 815.871094 704.59375 805.054688 721.585938 C 797.363281 733.667969 789.050781 743.816406 779.363281 751.507812 C 789.34375 758.9375 797.84375 768.902344 805.664062 780.863281 C 816 772.277344 824.914062 762.042969 832.78125 750.921875 C 832.777344 750.917969 832.773438 750.910156 832.765625 750.902344 L 832.796875 750.910156 C 848.378906 728.875 859.863281 703.363281 870.222656 680.28125 C 915.003906 637.472656 963.207031 591.070312 987.644531 529.40625 C 1012.386719 466.980469 1012.046875 390.53125 1011.992188 319.332031 C 1011.980469 308.5 1003.234375 299.707031 992.40625 299.644531 L 455.066406 296.433594 C 455.03125 296.433594 454.996094 296.433594 454.960938 296.433594 Z M 454.960938 296.433594 " fill-opacity="1" fill-rule="nonzero"/><g clip-path="url(#de63470f88)"><path fill="#000000" d="M 427.109375 182.972656 C 421.882812 182.96875 416.871094 185.042969 413.175781 188.734375 C 409.476562 192.429688 407.398438 197.4375 407.394531 202.664062 L 407.363281 262.007812 C 407.359375 267.234375 409.433594 272.246094 413.125 275.941406 C 416.820312 279.640625 421.828125 281.71875 427.054688 281.722656 L 1021.964844 282.046875 C 1032.847656 282.054688 1041.675781 273.238281 1041.679688 262.355469 L 1041.714844 203.015625 C 1041.71875 192.132812 1032.902344 183.308594 1022.019531 183.300781 Z M 427.109375 182.972656 " fill-opacity="1" fill-rule="nonzero"/></g><g clip-path="url(#21cd88a384)"><path fill="#000000" d="M 428.542969 1222.429688 C 423.316406 1222.425781 418.304688 1224.5 414.609375 1228.191406 C 410.910156 1231.886719 408.832031 1236.894531 408.828125 1242.121094 L 408.796875 1301.464844 C 408.792969 1306.691406 410.867188 1311.703125 414.558594 1315.398438 C 418.253906 1319.097656 423.261719 1321.175781 428.488281 1321.179688 L 1023.398438 1321.507812 C 1034.28125 1321.511719 1043.109375 1312.695312 1043.113281 1301.816406 L 1043.148438 1242.476562 C 1043.152344 1231.59375 1034.335938 1222.769531 1023.453125 1222.761719 Z M 428.542969 1222.429688 " fill-opacity="1" fill-rule="nonzero"/></g><path fill="#000000" d="M 805.054688 721.585938 C 797.363281 733.667969 789.050781 743.816406 779.363281 751.507812 C 789.34375 758.9375 797.84375 768.902344 805.664062 780.863281 C 817.023438 798.242188 826.945312 819.84375 837.785156 844.03125 C 838.824219 846.351562 840.300781 848.449219 842.136719 850.207031 C 888.925781 895.007812 931.605469 936.304688 952.753906 989.84375 C 972.1875 1039.039062 974.054688 1099.929688 974.128906 1165.824219 L 475.707031 1168.246094 C 474.058594 1099.523438 474.402344 1036.257812 493.734375 986.359375 C 502.574219 963.535156 515.695312 942.902344 530.710938 923.21875 C 541.152344 909.527344 552.320312 896.539062 563.464844 883.582031 C 573.710938 871.679688 584.101562 859.609375 593.269531 847.589844 C 604.308594 833.113281 613.46875 818.863281 621.664062 806.121094 C 627.367188 797.253906 632.535156 789.285156 637.566406 782.175781 C 646.207031 769.964844 654.441406 760.289062 664.277344 752.941406 C 654.128906 745.816406 645.738281 736.328125 637.050781 724.253906 C 626.476562 732.816406 617.617188 742.886719 609.640625 753.535156 C 609.648438 753.546875 609.660156 753.558594 609.667969 753.570312 L 609.640625 753.574219 C 602.003906 763.734375 595.199219 774.417969 588.519531 784.804688 C 580.234375 797.683594 571.882812 810.652344 561.9375 823.691406 C 553.601562 834.621094 544.003906 845.785156 533.59375 857.882812 C 522.554688 870.714844 510.640625 884.554688 499.375 899.324219 C 483.117188 920.640625 467.660156 944.582031 456.988281 972.125 C 432.417969 1035.546875 434.832031 1114.875 436.777344 1188.5625 C 437.0625 1199.238281 445.796875 1207.738281 456.464844 1207.746094 C 456.5 1207.746094 456.535156 1207.746094 456.570312 1207.746094 L 993.910156 1205.132812 C 1004.742188 1205.082031 1013.5 1196.296875 1013.519531 1185.46875 C 1013.652344 1114.265625 1014.078125 1037.820312 989.40625 975.367188 C 965.035156 913.675781 916.882812 867.21875 872.125 824.359375 C 861.382812 800.292969 849.390625 773.585938 832.8125 750.921875 L 832.78125 750.929688 C 824.773438 739.941406 815.660156 729.90625 805.082031 721.585938 Z M 805.054688 721.585938 " fill-opacity="1" fill-rule="nonzero"/><path fill="#000000" d="M 566.964844 599.816406 L 561.476562 599.765625 C 552.636719 599.746094 552.921875 599.457031 562.328125 598.90625 L 628.519531 596.394531 C 672.1875 595.109375 706.59375 594.445312 731.730469 594.402344 C 777.109375 594.277344 825.464844 595.566406 876.804688 598.273438 L 736.21875 784.777344 L 736.757812 1013.71875 L 886.660156 1173.632812 L 553.449219 1174.175781 L 712.980469 1012.140625 L 710.132812 781.21875 L 566.964844 599.816406 " fill-opacity="1" fill-rule="nonzero"/></svg>