<svg xmlns="http://www.w3.org/2000/svg" xmlns:xlink="http://www.w3.org/1999/xlink" width="1935" zoomAndPan="magnify" viewBox="0 0 1451.25 1451.249935" height="1935" preserveAspectRatio="xMidYMid meet" version="1.0"><defs><clipPath id="81addcedd6"><path d="M 0 0 L 1450.5 0 L 1450.5 1450.5 L 0 1450.5 Z M 0 0 " clip-rule="nonzero"/></clipPath></defs><g clip-path="url(#81addcedd6)"><path fill="#ffffff" d="M 0 0 L 1450.5 0 L 1450.5 1450.5 L 0 1450.5 Z M 0 0 " fill-opacity="1" fill-rule="nonzero"/><path fill="#ffffff" d="M 0 0 L 1450.5 0 L 1450.5 1450.5 L 0 1450.5 Z M 0 0 " fill-opacity="1" fill-rule="nonzero"/></g><path fill="#000000" d="M 1149.730469 263.519531 C 1074.007812 187.742188 973.332031 146.089844 866.285156 146.089844 C 759.164062 146.089844 658.492188 187.742188 582.734375 263.519531 C 506.976562 339.226562 465.265625 439.992188 465.265625 547.140625 C 465.265625 640.273438 496.90625 728.496094 554.894531 799.777344 L 477.496094 877.191406 L 459.867188 859.554688 L 225.066406 1094.34375 L 319.050781 1188.347656 L 553.777344 953.558594 L 536.214844 935.921875 L 613.609375 858.507812 C 684.871094 916.578125 773.070312 948.15625 866.179688 948.15625 C 973.300781 948.15625 1073.972656 906.433594 1149.730469 830.65625 C 1306.085938 674.292969 1306.085938 419.882812 1149.730469 263.519531 Z M 1106.449219 787.296875 C 1042.261719 851.5 956.992188 886.8125 866.179688 886.8125 C 775.4375 886.8125 690.167969 851.46875 625.980469 787.296875 C 561.863281 723.164062 526.527344 637.871094 526.527344 547.105469 C 526.527344 456.339844 561.863281 370.980469 626.015625 306.84375 C 690.132812 242.640625 775.402344 207.332031 866.214844 207.332031 C 956.957031 207.332031 1042.226562 242.675781 1106.414062 306.84375 C 1238.832031 439.367188 1238.832031 654.914062 1106.449219 787.296875 Z M 1106.449219 787.296875 " fill-opacity="1" fill-rule="nonzero"/><path fill="#000000" d="M 866.214844 253.027344 C 787.667969 253.027344 713.898438 283.664062 658.351562 339.15625 C 649.988281 347.519531 649.988281 361.148438 658.351562 369.515625 C 666.714844 377.878906 680.339844 377.878906 688.703125 369.515625 C 736.132812 322.074219 799.167969 296.003906 866.214844 296.003906 C 933.328125 296.003906 996.332031 322.074219 1043.792969 369.515625 C 1047.941406 373.734375 1053.445312 375.789062 1058.988281 375.789062 C 1064.421875 375.789062 1069.929688 373.734375 1074.179688 369.515625 C 1082.542969 361.148438 1082.542969 347.519531 1074.179688 339.15625 C 1018.601562 283.664062 944.757812 253.027344 866.214844 253.027344 Z M 866.214844 253.027344 " fill-opacity="1" fill-rule="nonzero"/><path fill="#000000" d="M 170.007812 1149.484375 C 146.035156 1173.394531 146.035156 1212.261719 170.007812 1236.136719 L 177.292969 1243.492188 C 201.265625 1267.402344 240.050781 1267.402344 263.992188 1243.492188 L 296.257812 1211.214844 L 202.277344 1117.207031 Z M 170.007812 1149.484375 " fill-opacity="1" fill-rule="nonzero"/></svg>