<?xml version="1.0" encoding="utf-8"?>
<svg width="1024" zoomAndPan="magnify" viewBox="207.165 189.997 347.947 384.572" height="1024" preserveAspectRatio="xMidYMid meet" version="1.0" xmlns="http://www.w3.org/2000/svg">
  <defs>
    <clipPath id="7e01ec6b32">
      <path d="M 370 243 L 491.730469 243 L 491.730469 479 L 370 479 Z M 370 243 " clip-rule="nonzero"/>
    </clipPath>
  </defs>
  <g clip-path="url(#7e01ec6b32)">
    <path fill="#0c5ca4" d="M 415.21875 478.574219 C 413.328125 478.574219 411.496094 478.511719 409.605469 478.574219 C 407.039062 478.632812 404.78125 478.085938 402.585938 476.679688 C 397.578125 473.445312 392.085938 471.371094 386.410156 469.722656 C 382.261719 468.503906 378.171875 466.976562 374.082031 465.449219 C 371.699219 464.597656 370.785156 462.703125 370.96875 460.324219 C 371.152344 457.820312 371.394531 455.378906 371.699219 452.9375 C 375.058594 427.972656 380.613281 403.4375 386.042969 378.902344 C 391.539062 354.363281 397.03125 329.828125 402.523438 305.230469 C 403.074219 302.789062 403.621094 300.410156 404.171875 297.96875 C 407.222656 284.601562 409.359375 271.109375 410.640625 257.5 C 410.945312 254.386719 411.3125 251.335938 411.742188 248.222656 C 411.984375 246.511719 413.144531 245.414062 414.671875 244.988281 C 416.441406 244.5 418.332031 244.070312 420.164062 244.070312 C 436.949219 243.828125 453.734375 243.644531 470.519531 243.523438 C 472.714844 243.523438 474.851562 243.707031 477.050781 244.011719 C 481.015625 244.5 484.128906 246.453125 485.777344 250.113281 C 489.074219 257.257812 491.148438 264.703125 491.332031 272.574219 C 491.394531 275.324219 490.78125 278.128906 489.929688 280.816406 C 486.875 290.582031 484.007812 300.46875 480.285156 309.992188 C 466.550781 345.027344 454.710938 380.609375 445.003906 416.988281 C 440.550781 433.773438 435.421875 450.4375 430.601562 467.097656 C 429.929688 469.480469 428.953125 471.796875 428.28125 474.179688 C 427.488281 477.109375 425.351562 478.085938 422.726562 478.207031 C 420.222656 478.328125 417.78125 478.207031 415.28125 478.207031 C 415.21875 478.328125 415.21875 478.453125 415.21875 478.574219 Z M 415.21875 478.574219 " fill-opacity="1" fill-rule="nonzero"/>
  </g>
  <path fill="#0c5ca4" d="M 368.40625 260.855469 C 367.734375 269.523438 366.511719 278.128906 364.804688 286.675781 C 361.082031 305.597656 357.113281 324.457031 354.121094 343.5 C 350.644531 365.59375 346.980469 387.691406 345.332031 410.03125 C 344.417969 422.421875 342.953125 434.808594 341.730469 447.140625 C 341.546875 448.972656 341.242188 450.863281 340.816406 452.632812 C 340.023438 456.476562 339.59375 456.539062 335.078125 456.417969 C 330.441406 456.296875 325.742188 456.476562 321.101562 456.722656 C 319.269531 456.785156 317.441406 457.332031 315.546875 457.515625 C 307.550781 458.429688 304.5625 456.296875 301.449219 448.789062 C 298.03125 440.363281 296.320312 431.574219 294.734375 422.726562 C 292.414062 409.90625 290.035156 397.027344 287.960938 384.148438 C 286.675781 376.15625 285.761719 368.097656 285.027344 360.101562 C 284.234375 351.433594 283.808594 342.707031 283.257812 334.039062 C 282.40625 320.671875 281.734375 307.304688 280.757812 294 C 280.144531 283.195312 279.046875 272.332031 277.949219 261.527344 C 276.972656 251.273438 276.605469 249.992188 287.898438 246.023438 C 293.453125 244.070312 299.25 242.851562 304.925781 241.324219 C 316.339844 238.273438 327.816406 235.464844 339.105469 232.109375 C 344.84375 230.398438 349.421875 231.5 353.757812 235.222656 C 355.890625 237.054688 358.210938 238.578125 360.410156 240.347656 C 366.511719 245.109375 369.5625 251.214844 368.464844 259.085938 C 368.464844 259.574219 368.464844 260.246094 368.40625 260.855469 Z M 368.40625 260.855469 " fill-opacity="1" fill-rule="nonzero"/>
  <path fill="#0c5ca4" d="M 393.183594 483.210938 C 396.910156 483.210938 400.632812 483.089844 404.355469 483.273438 C 406.796875 483.394531 409.300781 483.761719 411.679688 484.25 C 412.839844 484.492188 414.058594 485.105469 414.914062 485.898438 C 425.289062 494.746094 429.074219 509.457031 424.4375 522.335938 C 422.175781 528.621094 417.78125 532.589844 411.375 534.484375 C 400.875 537.59375 390.5 536.679688 380.183594 533.871094 C 375.972656 532.710938 372.1875 530.453125 368.953125 527.523438 C 364.375 523.375 361.8125 518.246094 361.386719 512.019531 C 360.898438 504.695312 362.726562 497.800781 365.902344 491.328125 C 368.769531 485.53125 373.652344 482.601562 380.125 482.539062 C 384.457031 482.480469 388.789062 482.539062 393.125 482.539062 C 393.183594 482.785156 393.183594 483.027344 393.183594 483.210938 Z M 393.183594 483.210938 " fill-opacity="1" fill-rule="nonzero"/>
  <path fill="#0c5ca4" d="M 315.976562 464.289062 C 322.015625 464.046875 327.632812 465.878906 332.941406 468.320312 C 337.398438 470.332031 339.902344 474.542969 341.488281 478.941406 C 343.136719 483.394531 343.074219 488.15625 341.488281 492.671875 C 339.960938 496.945312 337.214844 500.179688 332.394531 501.21875 C 330.257812 501.644531 328.183594 502.4375 326.046875 502.683594 C 316.402344 503.78125 316.464844 504.636719 307.734375 498.714844 C 306.207031 497.675781 304.5625 496.761719 303.035156 495.722656 C 295.34375 490.597656 293.332031 481.746094 298.03125 473.75 C 301.449219 468.015625 306.515625 464.839844 313.167969 464.351562 C 314.082031 464.230469 315 464.289062 315.976562 464.289062 Z M 315.976562 464.289062 " fill-opacity="1" fill-rule="nonzero"/>
  <path fill="#ffffff" d="M 414 471.675781 C 415.953125 471.554688 417.234375 471.554688 418.453125 471.433594 C 423.152344 471.066406 423.765625 470.636719 424.984375 466.304688 C 428.097656 455.257812 431.332031 444.210938 434.261719 433.101562 C 442.136719 403.375 450.621094 373.835938 460.628906 344.722656 C 467.894531 323.542969 476.804688 303.03125 483.761719 281.730469 C 485.351562 276.847656 486.691406 272.394531 484.191406 267.449219 C 483.335938 265.800781 483.214844 263.847656 482.726562 262.078125 C 482.480469 261.222656 482.175781 260.125 481.015625 260.429688 C 480.222656 260.675781 479.367188 261.40625 479.003906 262.078125 C 478.027344 264.03125 477.230469 266.046875 476.4375 268.058594 C 472.105469 278.742188 467.773438 289.359375 463.5 300.042969 C 457.761719 314.507812 452.453125 329.09375 448.179688 344.050781 C 445.308594 354.179688 442.320312 364.3125 439.207031 374.445312 C 430.113281 404.476562 422.664062 434.992188 411.496094 464.414062 C 410.824219 466.121094 410.519531 467.953125 410.152344 469.785156 C 410.09375 470.210938 410.640625 471.003906 411.007812 471.125 C 412.289062 471.433594 413.511719 471.554688 414 471.675781 Z M 414 471.675781 " fill-opacity="1" fill-rule="nonzero"/>
  <path fill="#ffffff" d="M 329.769531 436.214844 C 329.585938 436.214844 329.464844 436.214844 329.28125 436.214844 C 329.21875 437.128906 329.160156 438.105469 329.160156 439.023438 C 329.035156 440.976562 329.585938 442.683594 331.113281 444.027344 C 332.515625 445.246094 333.796875 446.589844 335.199219 447.75 C 335.445312 447.933594 336.605469 447.628906 336.664062 447.382812 C 337.277344 445.308594 338.007812 443.234375 338.191406 441.097656 C 339.105469 431.820312 339.902344 422.542969 340.753906 413.265625 C 341.546875 404.292969 342.035156 395.257812 343.320312 386.347656 C 345.578125 370.050781 348.078125 353.753906 350.949219 337.578125 C 354.0625 320.125 357.601562 302.789062 361.082031 285.453125 C 363.09375 275.382812 363.582031 265.128906 364.988281 254.9375 C 365.046875 254.328125 365.109375 253.65625 364.988281 253.105469 C 364.742188 252.25 364.4375 251.214844 363.828125 250.664062 C 360.59375 247.796875 357.234375 244.988281 353.816406 242.300781 C 352.167969 240.960938 350.214844 242.058594 349.910156 244.4375 C 349.179688 249.992188 348.507812 255.546875 347.835938 261.101562 C 346.308594 274.039062 344.90625 287.042969 343.320312 299.980469 C 341.671875 313.53125 339.960938 327.082031 338.191406 340.691406 C 336.664062 352.714844 334.957031 364.742188 333.554688 376.765625 C 332.515625 385.433594 331.660156 394.097656 331.113281 402.765625 C 330.5 413.875 330.195312 425.042969 329.769531 436.214844 Z M 329.769531 436.214844 " fill-opacity="1" fill-rule="nonzero"/>
  <path fill="#ffffff" d="M 319.882812 453.304688 C 319.882812 453.367188 319.882812 453.425781 319.882812 453.488281 C 322.628906 453.671875 325.375 453.914062 328.121094 454.035156 C 329.828125 454.097656 330.804688 452.390625 330.074219 450.925781 C 328.304688 447.382812 326.046875 444.941406 321.46875 445.859375 C 317.867188 446.589844 314.203125 446.773438 310.601562 447.261719 C 309.992188 447.324219 309.445312 447.628906 308.894531 447.871094 C 307.550781 448.359375 307.308594 450.679688 308.589844 451.65625 C 309.503906 452.328125 310.601562 453.183594 311.703125 453.304688 C 314.386719 453.425781 317.132812 453.304688 319.882812 453.304688 Z M 319.882812 453.304688 " fill-opacity="1" fill-rule="nonzero"/>
  <path fill="#ffffff" d="M 419.554688 513.304688 C 419.734375 503.78125 417.84375 497.617188 413.144531 491.148438 C 412.472656 490.171875 411.375 489.195312 410.335938 488.886719 C 407.957031 488.21875 405.453125 488.035156 403.132812 489.132812 C 402.769531 489.316406 402.28125 490.292969 402.464844 490.597656 C 403.011719 491.695312 403.683594 492.734375 404.476562 493.648438 C 407.222656 496.824219 408.628906 500.546875 409.117188 504.574219 C 409.96875 511.472656 409.300781 518.1875 405.941406 524.410156 C 405.210938 525.753906 404.539062 527.097656 403.988281 528.5 C 403.867188 528.804688 404.597656 529.78125 404.964844 529.84375 C 413.207031 530.085938 417.964844 526.242188 419.246094 518.429688 C 419.492188 516.292969 419.492188 514.15625 419.554688 513.304688 Z M 419.554688 513.304688 " fill-opacity="1" fill-rule="nonzero"/>
  <path fill="#ffffff" d="M 320.550781 500.058594 C 323.238281 499.507812 326.898438 498.898438 330.441406 497.984375 C 336.054688 496.457031 338.496094 493.160156 338.984375 487.421875 C 339.414062 481.808594 337.335938 477.167969 333.796875 473.078125 C 333.066406 472.226562 331.78125 471.796875 330.683594 471.433594 C 329.769531 471.125 329.28125 473.019531 329.707031 475.277344 C 329.828125 475.886719 330.074219 476.4375 330.195312 477.046875 C 331.964844 483.089844 329.890625 487.789062 325.558594 492 C 323.054688 494.441406 320.0625 495.90625 317.195312 497.675781 C 316.890625 497.859375 316.890625 498.714844 316.953125 499.203125 C 316.953125 499.386719 317.441406 499.628906 317.683594 499.691406 C 318.292969 499.8125 318.964844 499.8125 320.550781 500.058594 Z M 320.550781 500.058594 " fill-opacity="1" fill-rule="nonzero"/>
</svg>