<svg xmlns="http://www.w3.org/2000/svg" xmlns:xlink="http://www.w3.org/1999/xlink" width="1935" zoomAndPan="magnify" viewBox="0 0 1451.25 1451.249935" height="1935" preserveAspectRatio="xMidYMid meet" version="1.0"><defs><clipPath id="54f02d270a"><path d="M 158.105469 145.058594 L 1292.269531 145.058594 L 1292.269531 1279.222656 L 158.105469 1279.222656 Z M 158.105469 145.058594 " clip-rule="nonzero"/></clipPath></defs><g clip-path="url(#54f02d270a)"><path fill="#000000" d="M 725.1875 1279.222656 C 573.714844 1279.222656 431.3125 1220.234375 324.195312 1113.132812 C 217.097656 1006.015625 158.105469 863.617188 158.105469 712.140625 C 158.105469 560.664062 217.097656 418.265625 324.195312 311.148438 C 431.3125 204.046875 573.714844 145.058594 725.1875 145.058594 C 876.664062 145.058594 1019.0625 204.046875 1126.179688 311.148438 C 1233.28125 418.265625 1292.269531 560.664062 1292.269531 712.140625 C 1292.269531 863.617188 1233.28125 1006.015625 1126.179688 1113.132812 C 1019.078125 1220.25 876.664062 1279.222656 725.1875 1279.222656 Z M 725.1875 231.609375 C 460.214844 231.609375 244.65625 447.183594 244.65625 712.140625 C 244.65625 977.113281 460.230469 1192.671875 725.1875 1192.671875 C 990.164062 1192.671875 1205.71875 977.097656 1205.71875 712.140625 C 1205.71875 447.167969 990.164062 231.609375 725.1875 231.609375 Z M 725.1875 231.609375 " fill-opacity="1" fill-rule="nonzero"/></g><path fill="#000000" d="M 913.417969 931.105469 C 904.984375 931.105469 896.46875 928.640625 888.980469 923.515625 L 678.167969 778.949219 C 666.378906 770.867188 659.355469 757.492188 659.371094 743.191406 L 659.917969 389.433594 C 659.949219 365.558594 679.324219 346.230469 703.183594 346.230469 C 703.199219 346.230469 703.234375 346.230469 703.25 346.230469 C 727.140625 346.265625 746.484375 365.675781 746.449219 389.566406 L 745.9375 720.488281 L 937.917969 852.140625 C 957.625 865.667969 962.652344 892.597656 949.128906 912.304688 C 940.746094 924.523438 927.1875 931.105469 913.417969 931.105469 Z M 913.417969 931.105469 " fill-opacity="1" fill-rule="nonzero"/></svg>