<svg xmlns="http://www.w3.org/2000/svg" xmlns:xlink="http://www.w3.org/1999/xlink" width="1935" zoomAndPan="magnify" viewBox="0 0 1451.25 1451.249935" height="1935" preserveAspectRatio="xMidYMid meet" version="1.0"><defs><clipPath id="18b87885a1"><path d="M 0 0 L 1450.5 0 L 1450.5 1450.5 L 0 1450.5 Z M 0 0 " clip-rule="nonzero"/></clipPath><clipPath id="2eea04fcac"><path d="M 396 192.320312 L 1042 192.320312 L 1042 780 L 396 780 Z M 396 192.320312 " clip-rule="nonzero"/></clipPath></defs><g clip-path="url(#18b87885a1)"><path fill="#ffffff" d="M 0 0 L 1450.5 0 L 1450.5 1450.5 L 0 1450.5 Z M 0 0 " fill-opacity="1" fill-rule="nonzero"/><path fill="#ffffff" d="M 0 0 L 1450.5 0 L 1450.5 1450.5 L 0 1450.5 Z M 0 0 " fill-opacity="1" fill-rule="nonzero"/></g><path fill="#000000" d="M 1258.589844 1256.046875 L 192.320312 1256.046875 C 183.121094 1256.046875 175.660156 1248.585938 175.660156 1239.390625 L 175.660156 591.375 C 175.660156 582.171875 183.121094 574.71875 192.320312 574.71875 C 201.523438 574.71875 208.980469 582.171875 208.980469 591.375 L 208.980469 1222.738281 L 1241.929688 1222.738281 L 1241.929688 591.375 C 1241.929688 582.171875 1249.382812 574.71875 1258.589844 574.71875 C 1267.792969 574.71875 1275.25 582.171875 1275.25 591.375 L 1275.25 1239.390625 C 1275.25 1248.585938 1267.792969 1256.046875 1258.589844 1256.046875 " fill-opacity="1" fill-rule="nonzero"/><path fill="#000000" d="M 1258.558594 1256.046875 C 1255.152344 1256.046875 1251.703125 1255.015625 1248.734375 1252.84375 L 725.441406 869.617188 L 202.164062 1252.84375 C 194.679688 1258.289062 184.3125 1256.617188 178.867188 1249.25 C 173.441406 1241.828125 175.046875 1231.398438 182.46875 1225.949219 L 715.597656 835.527344 C 721.457031 831.234375 729.4375 831.234375 735.296875 835.527344 L 1268.421875 1225.949219 C 1275.847656 1231.398438 1277.453125 1241.828125 1272.03125 1249.25 C 1268.75 1253.691406 1263.695312 1256.046875 1258.558594 1256.046875 " fill-opacity="1" fill-rule="nonzero"/><path fill="#000000" d="M 1258.558594 608.03125 C 1255.152344 608.03125 1251.703125 606.996094 1248.734375 604.824219 L 1020.824219 437.917969 C 1013.398438 432.476562 1011.808594 422.050781 1017.214844 414.628906 C 1022.667969 407.238281 1033.039062 405.5625 1040.523438 411.03125 L 1268.421875 577.925781 C 1275.847656 583.378906 1277.453125 593.808594 1272.03125 601.21875 C 1268.75 605.671875 1263.695312 608.03125 1258.558594 608.03125 " fill-opacity="1" fill-rule="nonzero"/><path fill="#000000" d="M 192.339844 608.027344 C 187.199219 608.027344 182.144531 605.660156 178.871094 601.21875 C 173.445312 593.796875 175.050781 583.371094 182.472656 577.929688 L 403.699219 415.925781 C 411.140625 410.457031 421.550781 412.136719 426.996094 419.527344 C 432.421875 426.949219 430.816406 437.375 423.394531 442.820312 L 202.167969 604.820312 C 199.195312 606.984375 195.746094 608.027344 192.339844 608.027344 " fill-opacity="1" fill-rule="nonzero"/><path fill="#000000" d="M 816.144531 932.027344 C 811.007812 932.027344 805.953125 929.667969 802.679688 925.226562 C 797.25 917.804688 798.855469 907.378906 806.277344 901.929688 L 1248.734375 577.925781 C 1256.1875 572.488281 1266.589844 574.113281 1272.03125 581.535156 C 1277.453125 588.945312 1275.847656 599.382812 1268.421875 604.824219 L 825.980469 928.828125 C 823 930.992188 819.550781 932.027344 816.144531 932.027344 " fill-opacity="1" fill-rule="nonzero"/><path fill="#000000" d="M 634.757812 932.027344 C 631.347656 932.027344 627.898438 930.988281 624.925781 928.824219 L 182.472656 604.820312 C 175.050781 599.378906 173.445312 588.941406 178.871094 581.527344 C 184.316406 574.105469 194.683594 572.488281 202.167969 577.929688 L 644.625 901.925781 C 652.046875 907.375 653.648438 917.804688 648.222656 925.222656 C 644.945312 929.664062 639.890625 932.027344 634.757812 932.027344 " fill-opacity="1" fill-rule="nonzero"/><g clip-path="url(#2eea04fcac)"><path fill="#000000" d="M 1024.597656 779.375 C 1015.40625 779.375 1007.9375 771.917969 1007.9375 762.71875 L 1007.9375 225.621094 L 430.207031 225.621094 L 430.207031 751.765625 C 430.207031 760.964844 422.746094 768.421875 413.546875 768.421875 C 404.351562 768.421875 396.886719 760.964844 396.886719 751.765625 L 396.886719 208.964844 C 396.886719 199.777344 404.351562 192.3125 413.546875 192.3125 L 1024.597656 192.3125 C 1033.800781 192.3125 1041.257812 199.777344 1041.257812 208.964844 L 1041.257812 762.71875 C 1041.257812 771.917969 1033.800781 779.375 1024.597656 779.375 " fill-opacity="1" fill-rule="nonzero"/></g><path fill="#000000" d="M 727.488281 473.507812 C 698.445312 473.507812 674.796875 497.140625 674.796875 526.1875 C 674.796875 555.222656 698.445312 578.839844 727.488281 578.839844 C 756.542969 578.839844 780.164062 555.222656 780.164062 526.1875 C 780.164062 497.140625 756.542969 473.507812 727.488281 473.507812 Z M 727.488281 612.148438 C 680.070312 612.148438 641.476562 573.589844 641.476562 526.1875 C 641.476562 478.773438 680.070312 440.199219 727.488281 440.199219 C 774.917969 440.199219 813.484375 478.773438 813.484375 526.1875 C 813.484375 573.589844 774.917969 612.148438 727.488281 612.148438 " fill-opacity="1" fill-rule="nonzero"/><path fill="#000000" d="M 719.074219 731.816406 C 607.894531 731.816406 517.457031 641.40625 517.457031 530.261719 C 517.457031 419.117188 607.894531 328.699219 719.074219 328.699219 C 830.257812 328.699219 920.695312 419.117188 920.695312 530.261719 L 920.695312 546.828125 C 920.695312 585.101562 889.539062 616.246094 851.25 616.246094 C 812.96875 616.246094 781.8125 585.101562 781.8125 546.828125 L 781.8125 460.953125 C 781.8125 451.753906 789.269531 444.296875 798.472656 444.296875 C 807.671875 444.296875 815.132812 451.753906 815.132812 460.953125 L 815.132812 546.828125 C 815.132812 566.734375 831.335938 582.9375 851.25 582.9375 C 871.167969 582.9375 887.375 566.734375 887.375 546.828125 L 887.375 530.261719 C 887.375 437.488281 811.882812 362.011719 719.074219 362.011719 C 626.269531 362.011719 550.777344 437.488281 550.777344 530.261719 C 550.777344 623.039062 626.269531 698.507812 719.074219 698.507812 C 752.246094 698.507812 784.308594 688.875 811.808594 670.683594 C 819.472656 665.539062 829.839844 667.710938 834.890625 675.363281 C 839.992188 683.042969 837.890625 693.363281 830.210938 698.441406 C 797.230469 720.28125 758.792969 731.816406 719.074219 731.816406 " fill-opacity="1" fill-rule="nonzero"/></svg>