<svg xmlns="http://www.w3.org/2000/svg" xmlns:xlink="http://www.w3.org/1999/xlink" width="1935" zoomAndPan="magnify" viewBox="0 0 1451.25 1451.249935" height="1935" preserveAspectRatio="xMidYMid meet" version="1.0"><defs><clipPath id="35484966da"><path d="M 353.296875 117.4375 L 1086 117.4375 L 1086 1364.792969 L 353.296875 1364.792969 Z M 353.296875 117.4375 " clip-rule="nonzero"/></clipPath></defs><g clip-path="url(#35484966da)"><path fill="#003360" d="M 1085.304688 483.402344 C 1085.304688 281.285156 921.457031 117.4375 719.355469 117.4375 C 517.253906 117.4375 353.390625 281.285156 353.390625 483.402344 C 353.390625 685.515625 517.238281 849.363281 719.355469 849.363281 C 727.378906 849.363281 734.898438 847.519531 742.800781 846.996094 C 748.113281 872.035156 751.5625 894.507812 751.695312 911.761719 C 752.59375 1029.597656 651.570312 1364.609375 651.570312 1364.609375 C 651.570312 1364.609375 918.046875 1195.546875 1011.996094 924.011719 C 1097.15625 677.917969 1085.304688 483.402344 1085.304688 483.402344 Z M 1085.304688 483.402344 " fill-opacity="1" fill-rule="nonzero"/></g></svg>