<svg xmlns="http://www.w3.org/2000/svg" xmlns:xlink="http://www.w3.org/1999/xlink" width="1935" zoomAndPan="magnify" viewBox="0 0 1451.25 1451.249935" height="1935" preserveAspectRatio="xMidYMid meet" version="1.0"><defs><clipPath id="ec68795afb"><path d="M 0 0 L 1450.5 0 L 1450.5 1450.5 L 0 1450.5 Z M 0 0 " clip-rule="nonzero"/></clipPath><clipPath id="d721ae4a2c"><path d="M 145.058594 188.703125 L 1311.457031 188.703125 L 1311.457031 1262.148438 L 145.058594 1262.148438 Z M 145.058594 188.703125 " clip-rule="nonzero"/></clipPath></defs><g clip-path="url(#ec68795afb)"><path fill="#ffffff" d="M 0 0 L 1450.5 0 L 1450.5 1450.5 L 0 1450.5 Z M 0 0 " fill-opacity="1" fill-rule="nonzero"/><path fill="#ffffff" d="M 0 0 L 1450.5 0 L 1450.5 1450.5 L 0 1450.5 Z M 0 0 " fill-opacity="1" fill-rule="nonzero"/></g><g clip-path="url(#d721ae4a2c)"><path fill="#000000" d="M 1218.128906 707.238281 L 1218.128906 212.050781 C 1218.128906 199.152344 1207.695312 188.714844 1194.804688 188.714844 L 261.710938 188.714844 C 248.828125 188.714844 238.382812 199.152344 238.382812 212.050781 L 238.382812 305.390625 L 168.402344 305.390625 C 155.519531 305.390625 145.074219 315.828125 145.074219 328.726562 L 145.074219 888.773438 C 145.074219 901.667969 155.519531 912.105469 168.402344 912.105469 L 659.457031 912.105469 C 658.90625 919.847656 658.277344 927.566406 658.277344 935.441406 C 658.277344 1115.582031 804.777344 1262.136719 984.859375 1262.136719 C 1164.9375 1262.136719 1311.4375 1115.582031 1311.4375 935.441406 C 1311.4375 846.679688 1275.757812 766.175781 1218.128906 707.238281 Z M 285.039062 235.382812 L 1171.476562 235.382812 L 1171.476562 667.722656 C 1156.78125 657.441406 1141.140625 648.507812 1124.820312 640.71875 L 1124.820312 328.726562 C 1124.820312 315.828125 1114.386719 305.390625 1101.492188 305.390625 L 285.039062 305.390625 Z M 191.730469 468.738281 L 1078.167969 468.738281 L 1078.167969 515.40625 L 191.730469 515.40625 Z M 1078.167969 352.0625 L 1078.167969 422.066406 L 191.730469 422.066406 L 191.730469 352.0625 Z M 191.730469 865.4375 L 191.730469 562.078125 L 1078.167969 562.078125 L 1078.167969 622.507812 C 1048.570312 613.660156 1017.292969 608.75 984.859375 608.75 C 828.816406 608.75 698.164062 718.855469 666.015625 865.4375 Z M 984.859375 1215.464844 C 830.496094 1215.464844 704.929688 1089.855469 704.929688 935.441406 C 704.929688 781.027344 830.496094 655.417969 984.859375 655.417969 C 1139.21875 655.417969 1264.785156 781.027344 1264.785156 935.441406 C 1264.785156 1089.855469 1139.21875 1215.464844 984.859375 1215.464844 Z M 984.859375 1215.464844 " fill-opacity="1" fill-rule="nonzero"/></g><path fill="#000000" d="M 448.332031 608.75 L 261.710938 608.75 C 248.828125 608.75 238.382812 619.1875 238.382812 632.082031 L 238.382812 725.425781 C 238.382812 738.324219 248.828125 748.761719 261.710938 748.761719 L 448.332031 748.761719 C 461.210938 748.761719 471.65625 738.324219 471.65625 725.425781 L 471.65625 632.082031 C 471.65625 619.1875 461.210938 608.75 448.332031 608.75 Z M 425.003906 702.089844 L 285.039062 702.089844 L 285.039062 655.417969 L 425.003906 655.417969 Z M 425.003906 702.089844 " fill-opacity="1" fill-rule="nonzero"/><path fill="#000000" d="M 1186.398438 853.539062 C 1165.507812 831.117188 1137.601562 818.765625 1107.828125 818.765625 C 1078.074219 818.765625 1050.167969 831.117188 1029.28125 853.539062 L 984.859375 901.222656 L 940.433594 853.539062 C 919.546875 831.117188 891.640625 818.765625 861.886719 818.765625 C 832.113281 818.765625 804.207031 831.117188 783.316406 853.539062 C 741.21875 898.707031 741.21875 972.175781 783.316406 1017.34375 C 804.207031 1039.765625 832.113281 1052.117188 861.886719 1052.117188 C 891.640625 1052.117188 919.546875 1039.765625 940.433594 1017.34375 L 984.859375 969.664062 L 1029.28125 1017.34375 C 1050.167969 1039.765625 1078.074219 1052.117188 1107.828125 1052.117188 C 1137.601562 1052.117188 1165.507812 1039.765625 1186.398438 1017.34375 C 1228.496094 972.175781 1228.496094 898.707031 1186.398438 853.539062 Z M 906.308594 985.53125 C 882.367188 1011.234375 841.339844 1011.234375 817.441406 985.53125 C 791.703125 957.910156 791.703125 912.972656 817.441406 885.351562 C 829.402344 872.5 845.191406 865.4375 861.886719 865.4375 C 878.5625 865.4375 894.351562 872.5 906.308594 885.351562 L 952.964844 935.441406 Z M 1152.273438 985.53125 C 1128.375 1011.234375 1087.347656 1011.234375 1063.40625 985.53125 L 1016.75 935.441406 L 1063.40625 885.351562 C 1087.347656 859.625 1128.375 859.671875 1152.273438 885.351562 C 1178.015625 912.972656 1178.015625 957.910156 1152.273438 985.53125 Z M 1152.273438 985.53125 " fill-opacity="1" fill-rule="nonzero"/></svg>