<svg xmlns="http://www.w3.org/2000/svg" xmlns:xlink="http://www.w3.org/1999/xlink" width="1935" zoomAndPan="magnify" viewBox="0 0 1451.25 1451.249935" height="1935" preserveAspectRatio="xMidYMid meet" version="1.0"><defs><clipPath id="3ce40e804a"><path d="M 129.894531 145.058594 L 1260 145.058594 L 1260 1276 L 129.894531 1276 Z M 129.894531 145.058594 " clip-rule="nonzero"/></clipPath></defs><g clip-path="url(#3ce40e804a)"><path fill="#003360" d="M 694.605469 1275.414062 C 383.230469 1275.414062 129.878906 1022.070312 129.878906 710.5625 C 129.878906 399.054688 383.238281 145.574219 694.605469 145.574219 C 796.648438 145.574219 896.433594 172.839844 983.21875 224.609375 C 1001.484375 235.488281 1007.480469 259.125 996.601562 277.253906 C 985.601562 295.640625 961.847656 301.136719 943.96875 290.640625 C 869.050781 245.996094 782.898438 222.359375 694.605469 222.359375 C 425.625 222.359375 206.660156 441.320312 206.660156 710.5625 C 206.660156 979.542969 425.632812 1198.378906 694.605469 1198.378906 C 963.71875 1198.378906 1182.554688 979.542969 1182.554688 710.5625 C 1182.554688 689.292969 1199.8125 672.171875 1221.0625 672.171875 C 1242.332031 672.171875 1259.589844 689.300781 1259.589844 710.5625 C 1259.589844 1022.070312 1006.101562 1275.414062 694.605469 1275.414062 Z M 694.605469 1275.414062 " fill-opacity="1" fill-rule="nonzero"/></g><path fill="#006934" d="M 648.96875 1025.808594 C 647.21875 1025.808594 645.464844 1025.808594 643.714844 1025.5625 C 616.203125 1024.058594 591.070312 1009.816406 575.433594 987.050781 L 387.234375 713.058594 C 359.339844 672.421875 369.722656 616.894531 410.242188 589.007812 C 451.257812 560.996094 506.28125 571.496094 534.292969 612.019531 L 657.472656 791.585938 L 1154.050781 224.734375 C 1186.5625 187.589844 1242.847656 184.085938 1279.859375 216.480469 C 1316.871094 248.871094 1320.628906 305.265625 1288.109375 342.28125 L 715.996094 995.300781 C 699.113281 1014.808594 674.59375 1025.808594 648.96875 1025.808594 Z M 648.96875 1025.808594 " fill-opacity="1" fill-rule="nonzero"/></svg>