<svg xmlns="http://www.w3.org/2000/svg" xmlns:xlink="http://www.w3.org/1999/xlink" version="1.1"  width="1.5em" height="1.5em" viewBox="0 0 1000 1000" xml:space="preserve">
<desc>Created with Fabric.js 3.5.0</desc>
<defs>
</defs>
<rect x="0" y="0" width="100%" height="100%" fill="#ffffff"/>
<g transform="matrix(-3.5511 0 0 3.5511 499.9953 499.9953)" id="479978">
<g style="" vector-effect="non-scaling-stroke">
		<g transform="matrix(2.81 0 0 2.81 36.5464 36.4316)">
<path style="stroke: none; stroke-width: 1; stroke-dasharray: none; stroke-linecap: butt; stroke-dashoffset: 0; stroke-linejoin: miter; stroke-miterlimit: 10; is-custom-font: none; font-file-url: none; fill: rgb(0,0,0); fill-rule: nonzero; opacity: 1;" transform=" translate(-58.0569, -58.016)" d="M 42.229 90 c -0.177 0 -0.354 -0.023 -0.53 -0.071 c -0.771 -0.213 -1.342 -0.864 -1.451 -1.656 l -8.24 -59.969 c -0.11 -0.803 0.274 -1.592 0.974 -2 c 0.699 -0.407 1.576 -0.354 2.22 0.137 l 48.135 36.705 c 0.636 0.485 0.922 1.303 0.727 2.079 c -0.195 0.775 -0.834 1.36 -1.624 1.486 L 58.75 70.492 L 43.793 89.247 C 43.408 89.73 42.829 90 42.229 90 z M 36.63 32.56 l 6.945 50.544 l 12.531 -15.712 c 0.311 -0.39 0.756 -0.649 1.248 -0.728 L 77.2 63.497 L 36.63 32.56 z" stroke-linecap="round"/>
</g>
		<g transform="matrix(2.81 0 0 2.81 -31.0843 -104.2862)">
<path style="stroke: none; stroke-width: 1; stroke-dasharray: none; stroke-linecap: butt; stroke-dashoffset: 0; stroke-linejoin: miter; stroke-miterlimit: 10; is-custom-font: none; font-file-url: none; fill: rgb(0,0,0); fill-rule: nonzero; opacity: 1;" transform=" translate(-33.989, -7.9385)" d="M 33.989 15.877 c -1.104 0 -2 -0.896 -2 -2 V 2 c 0 -1.104 0.896 -2 2 -2 s 2 0.896 2 2 v 11.877 C 35.989 14.982 35.094 15.877 33.989 15.877 z" stroke-linecap="round"/>
</g>
		<g transform="matrix(2.81 0 0 2.81 -87.7746 -47.5959)">
<path style="stroke: none; stroke-width: 1; stroke-dasharray: none; stroke-linecap: butt; stroke-dashoffset: 0; stroke-linejoin: miter; stroke-miterlimit: 10; is-custom-font: none; font-file-url: none; fill: rgb(0,0,0); fill-rule: nonzero; opacity: 1;" transform=" translate(-13.8145, -28.113)" d="M 19.754 30.113 H 7.876 c -1.104 0 -2 -0.896 -2 -2 s 0.896 -2 2 -2 h 11.877 c 1.104 0 2 0.896 2 2 S 20.858 30.113 19.754 30.113 z" stroke-linecap="round"/>
</g>
		<g transform="matrix(2.81 0 0 2.81 25.606 -47.5959)">
<path style="stroke: none; stroke-width: 1; stroke-dasharray: none; stroke-linecap: butt; stroke-dashoffset: 0; stroke-linejoin: miter; stroke-miterlimit: 10; is-custom-font: none; font-file-url: none; fill: rgb(0,0,0); fill-rule: nonzero; opacity: 1;" transform=" translate(-54.1635, -28.113)" d="M 60.102 30.113 H 48.225 c -1.104 0 -2 -0.896 -2 -2 s 0.896 -2 2 -2 h 11.877 c 1.104 0 2 0.896 2 2 S 61.206 30.113 60.102 30.113 z" stroke-linecap="round"/>
</g>
		<g transform="matrix(2.81 0 0 2.81 9.0017 -87.6802)">
<path style="stroke: none; stroke-width: 1; stroke-dasharray: none; stroke-linecap: butt; stroke-dashoffset: 0; stroke-linejoin: miter; stroke-miterlimit: 10; is-custom-font: none; font-file-url: none; fill: rgb(0,0,0); fill-rule: nonzero; opacity: 1;" transform=" translate(-48.2545, -13.8481)" d="M 44.055 20.047 c -0.512 0 -1.024 -0.195 -1.414 -0.586 c -0.781 -0.781 -0.781 -2.047 0 -2.828 l 8.399 -8.398 c 0.781 -0.781 2.047 -0.781 2.828 0 c 0.781 0.781 0.781 2.047 0 2.828 l -8.399 8.398 C 45.079 19.852 44.567 20.047 44.055 20.047 z" stroke-linecap="round"/>
</g>
		<g transform="matrix(2.81 0 0 2.81 -71.169 -7.5109)">
<path style="stroke: none; stroke-width: 1; stroke-dasharray: none; stroke-linecap: butt; stroke-dashoffset: 0; stroke-linejoin: miter; stroke-miterlimit: 10; is-custom-font: none; font-file-url: none; fill: rgb(0,0,0); fill-rule: nonzero; opacity: 1;" transform=" translate(-19.724, -42.3781)" d="M 15.525 48.577 c -0.512 0 -1.024 -0.195 -1.414 -0.586 c -0.781 -0.781 -0.781 -2.047 0 -2.828 l 8.398 -8.398 c 0.78 -0.781 2.048 -0.781 2.828 0 c 0.781 0.781 0.781 2.047 0 2.828 l -8.398 8.398 C 16.549 48.382 16.037 48.577 15.525 48.577 z" stroke-linecap="round"/>
</g>
		<g transform="matrix(2.81 0 0 2.81 -71.169 -87.6802)">
<path style="stroke: none; stroke-width: 1; stroke-dasharray: none; stroke-linecap: butt; stroke-dashoffset: 0; stroke-linejoin: miter; stroke-miterlimit: 10; is-custom-font: none; font-file-url: none; fill: rgb(0,0,0); fill-rule: nonzero; opacity: 1;" transform=" translate(-19.724, -13.8481)" d="M 23.923 20.047 c -0.512 0 -1.024 -0.195 -1.414 -0.586 l -8.398 -8.398 c -0.781 -0.781 -0.781 -2.047 0 -2.828 c 0.78 -0.781 2.048 -0.781 2.828 0 l 8.398 8.398 c 0.781 0.781 0.781 2.047 0 2.828 C 24.947 19.852 24.435 20.047 23.923 20.047 z" stroke-linecap="round"/>
</g>
</g>
</g>
</svg>